<svg xmlns="http://www.w3.org/2000/svg" xml:space="preserve" version="1.0" style="shape-rendering:geometricPrecision; text-rendering:geometricPrecision; image-rendering:optimizeQuality; fill-rule:evenodd; clip-rule:evenodd" viewBox="0 0 110 52" xmlns:xlink="http://www.w3.org/1999/xlink" id="el_XdnUv2TPa"><style type="text/css">@-webkit-keyframes kf_el_bbFsNgDlXS_an_lmshvAIOe {
    0% {
        opacity: 0
    }
    12.50% {
        opacity: 0
    }
    25% {
        opacity: 1
    }
    50% {
        opacity: 0.6
    }
    75% {
        opacity: 0.1
    }
    100% {
        opacity: 0
    }
}
@keyframes kf_el_bbFsNgDlXS_an_lmshvAIOe {
    0% {
        opacity: 0
    }
    12.50% {
        opacity: 0
    }
    25% {
        opacity: 1
    }
    50% {
        opacity: 0.6
    }
    75% {
        opacity: 0.1
    }
    100% {
        opacity: 0
    }
}
@-webkit-keyframes kf_el_nZ4IqCaikA_an_iWDExEDeB {
    25% {
        opacity: 0
    }
    50% {
        opacity: 1
    }
    75% {
        opacity: 0.6
    }
    100% {
        opacity: 0.1
    }
    0% {
        opacity: 0
    }
}
@keyframes kf_el_nZ4IqCaikA_an_iWDExEDeB {
    25% {
        opacity: 0
    }
    50% {
        opacity: 1
    }
    75% {
        opacity: 0.6
    }
    100% {
        opacity: 0.1
    }
    0% {
        opacity: 0
    }
}
@-webkit-keyframes kf_el_VbC2H8Ltc6_an_zuR_hLxEo {
    50% {
        opacity: 0
    }
    75% {
        opacity: 1
    }
    100% {
        opacity: 0.3
    }
    0% {
        opacity: 0
    }
}
@keyframes kf_el_VbC2H8Ltc6_an_zuR_hLxEo {
    50% {
        opacity: 0
    }
    75% {
        opacity: 1
    }
    100% {
        opacity: 0.3
    }
    0% {
        opacity: 0
    }
}
@-webkit-keyframes kf_el_WLWZvqXBji_an_AqFCBdhDk {
    0% {
        opacity: 0.6
    }
    12.50% {
        opacity: 0
    }
    25% {
        opacity: 0
    }
    75% {
        opacity: 0
    }
    100% {
        opacity: 1
    }
}
@keyframes kf_el_WLWZvqXBji_an_AqFCBdhDk {
    0% {
        opacity: 0.6
    }
    12.50% {
        opacity: 0
    }
    25% {
        opacity: 0
    }
    75% {
        opacity: 0
    }
    100% {
        opacity: 1
    }
}
#el_XdnUv2TPa * {
    -webkit-animation-duration: 4s;
            animation-duration: 4s;
    -webkit-animation-iteration-count: infinite;
            animation-iteration-count: infinite;
    -webkit-animation-timing-function: cubic-bezier(0, 0, 1, 1);
            animation-timing-function: cubic-bezier(0, 0, 1, 1)
}
#el_bbFsNgDlXS {
    fill: rgb(200, 100, 0);
    stroke-width: 0;
    stroke-linecap: butt;
    -webkit-animation-fill-mode: backwards;
            animation-fill-mode: backwards;
    opacity: 0;
    -webkit-animation-name: kf_el_bbFsNgDlXS_an_lmshvAIOe;
            animation-name: kf_el_bbFsNgDlXS_an_lmshvAIOe;
    -webkit-animation-timing-function: cubic-bezier(0, 0, 1, 1);
            animation-timing-function: cubic-bezier(0, 0, 1, 1)
}
#el_nZ4IqCaikA {
    fill: rgb(200, 100, 0);
    stroke-width: 0;
    -webkit-animation-fill-mode: backwards;
            animation-fill-mode: backwards;
    opacity: 0;
    -webkit-animation-name: kf_el_nZ4IqCaikA_an_iWDExEDeB;
            animation-name: kf_el_nZ4IqCaikA_an_iWDExEDeB;
    -webkit-animation-timing-function: cubic-bezier(0, 0, 1, 1);
            animation-timing-function: cubic-bezier(0, 0, 1, 1)
}
#el_VbC2H8Ltc6 {
    fill: rgb(200, 100, 0);
    stroke-width: 0;
    -webkit-animation-fill-mode: backwards;
            animation-fill-mode: backwards;
    opacity: 0;
    -webkit-animation-name: kf_el_VbC2H8Ltc6_an_zuR_hLxEo;
            animation-name: kf_el_VbC2H8Ltc6_an_zuR_hLxEo;
    -webkit-animation-timing-function: cubic-bezier(0, 0, 1, 1);
            animation-timing-function: cubic-bezier(0, 0, 1, 1)
}
#el_WLWZvqXBji {
    fill: rgb(200, 100, 0);
    stroke-width: 0;
    -webkit-animation-fill-mode: backwards;
            animation-fill-mode: backwards;
    opacity: 0.6;
    -webkit-animation-name: kf_el_WLWZvqXBji_an_AqFCBdhDk;
            animation-name: kf_el_WLWZvqXBji_an_AqFCBdhDk;
    -webkit-animation-timing-function: cubic-bezier(0, 0, 1, 1);
            animation-timing-function: cubic-bezier(0, 0, 1, 1)
}</style><style/>
 <defs>
  
 </defs>
 <g id="el_EIatf7dv9x">
  <metadata id="CorelCorpID_0Corel-Layer"/>
  <path d="M29 1c0,0 0,0 0,0 0,0 0,0 0,0 0,1 0,1 -1,1 0,0 0,0 0,0 0,0 0,0 0,0 0,0 0,0 0,0 0,1 0,1 -1,1 0,0 0,0 0,0 0,0 0,0 0,0 0,0 0,0 0,0 0,1 0,1 -1,1 0,0 0,0 0,0 0,0 0,0 0,0 0,0 0,0 0,0 0,1 0,1 -1,1 0,0 0,0 0,0 0,0 0,0 0,0 0,0 0,0 0,0 0,1 0,1 -1,1 0,0 0,0 0,0 0,0 0,0 0,0 0,0 0,0 0,0 0,1 0,1 -1,1 0,0 0,0 0,0 0,0 0,0 0,0 0,0 0,0 0,0 0,1 0,1 -1,1 0,0 0,0 0,0 0,0 0,0 0,0 0,0 0,0 0,0 0,1 0,1 -1,1 0,0 0,0 0,0 0,0 0,0 0,0 0,0 0,0 0,0 0,1 0,1 -1,1 0,0 0,0 0,0 0,0 0,0 0,0 0,0 0,0 0,0 0,1 0,1 -1,1 0,0 0,0 0,0 0,0 0,0 0,0 0,0 0,0 0,0 0,1 0,1 -1,1 0,0 0,0 0,0 0,0 0,0 0,0 0,0 0,0 0,0 0,1 0,1 -1,1 0,0 0,0 0,0 0,0 0,0 0,0 0,0 0,0 0,0 0,1 0,1 -1,1 0,0 0,0 0,0 0,0 0,0 0,0 0,0 0,0 0,0 0,1 0,1 -1,1 0,0 0,0 0,0 0,0 0,0 0,0 0,0 0,0 0,0 0,1 0,1 -1,1 0,0 0,0 0,0 0,0 0,0 0,0 0,0 0,0 0,0 0,1 0,1 -1,1 0,0 0,0 0,0 0,0 0,0 0,0 0,0 0,0 0,0 0,1 0,1 -1,1 0,0 0,0 0,0 0,0 0,0 0,0 0,0 0,0 0,0 0,1 0,1 -1,1 0,0 0,0 0,0 0,0 0,0 0,0 0,0 0,0 0,0 0,1 0,1 -1,1 0,0 0,0 0,0l0 0c0,0 0,0 0,0 0,0 0,0 -1,0 0,1 1,1 0,1 0,0 0,0 0,0 0,0 0,0 0,0 0,0 0,0 -1,0 0,1 1,1 0,1 0,0 0,0 0,0 0,0 0,0 0,0 0,0 0,0 -1,0 0,1 1,1 0,1 0,0 0,0 0,0 0,0 0,0 0,0 0,0 0,0 -1,0 0,1 1,1 0,1 0,0 0,0 0,0 0,0 0,0 0,0 0,0 0,0 -1,0 0,1 1,1 0,1 0,0 0,0 0,0 0,0 0,0 0,0 0,0 0,0 -1,0 0,1 1,1 0,1 0,0 0,0 0,0 0,0 0,0 0,0 0,0 0,0 -1,0l0 1c1,0 1,0 1,0 0,0 0,0 0,0 0,0 0,0 0,1 0,0 0,-1 0,0 1,0 1,0 1,0 0,0 0,0 0,0 0,0 0,0 0,1 0,0 0,-1 0,0 1,0 1,0 1,0 0,0 0,0 0,0 0,0 0,0 0,1 0,0 0,-1 0,0 1,0 1,0 1,0 0,0 0,0 0,0 0,0 0,0 0,1 0,0 0,-1 0,0 1,0 1,0 1,0 0,0 0,0 0,0 0,0 0,0 0,1 0,0 0,-1 0,0 1,0 1,0 1,0 0,0 0,0 0,0 0,0 0,0 0,1 0,0 0,-1 0,0 1,0 1,0 1,0 0,0 0,0 0,0 0,0 0,0 0,1 0,0 0,-1 0,0 1,0 1,0 1,0 0,0 0,0 0,0 0,0 0,0 0,1 0,0 0,-1 0,0 1,0 1,0 1,0 0,0 0,0 0,0 0,0 0,0 0,1 0,0 0,-1 0,0 1,0 1,0 1,0 0,0 0,0 0,0 0,0 0,0 0,1 0,0 0,-1 0,0 1,0 1,0 1,0 0,0 0,0 0,0 0,0 0,0 0,1 0,0 0,-1 0,0 1,0 1,0 1,0 0,0 0,0 0,0 0,0 0,0 0,1 0,0 0,-1 0,0 1,0 1,0 1,0 0,0 0,0 0,0 0,0 0,0 0,1 0,0 0,-1 0,0 1,0 1,0 1,0 0,0 0,0 0,0 0,0 0,0 0,1 0,0 0,-1 0,0 1,0 1,0 1,0 0,0 0,0 0,0 0,0 0,0 0,1 0,0 0,-1 0,0 1,0 1,0 1,0 0,0 0,0 0,0 0,0 0,0 0,1 0,0 0,-1 0,0 1,0 1,0 1,0 0,0 0,0 0,0 0,0 0,0 0,1 0,0 0,-1 0,0 1,0 1,0 1,0 0,0 0,0 0,0 0,0 0,0 0,1 0,0 0,-1 0,0 1,0 1,0 1,0 0,0 0,0 0,0 0,0 0,0 0,1 0,0 0,-1 0,0 1,0 1,0 1,0 0,0 0,0 0,0 0,0 0,0 0,1 0,0 0,-1 0,0 1,0 1,0 1,0 0,0 0,0 0,0 0,0 0,0 0,1 0,0 0,-1 0,0 1,0 1,0 1,0 0,0 0,0 0,0 0,0 0,0 0,1 0,0 0,-1 0,0 1,0 1,0 1,0 0,0 0,0 0,0 0,0 0,0 0,1 0,0 0,-1 0,0 1,0 1,0 1,0 0,0 0,0 0,0 0,0 0,0 0,1 0,0 0,-1 0,0 1,0 1,0 1,0 0,0 0,0 0,0 0,0 0,0 0,1 0,0 0,-1 0,0 1,0 1,0 1,0 0,0 0,0 0,0 0,0 0,0 0,1 0,0 0,-1 0,0l1 0 0 -13 0 0c-1,0 -1,0 -1,-1 0,0 0,0 0,0 0,0 0,0 0,0 -1,0 0,0 0,0 -1,0 -1,0 -1,-1 0,0 0,0 0,0 0,0 0,0 0,0 -1,0 0,0 0,0 -1,0 -1,0 -1,-1 0,0 0,0 0,0 0,0 0,0 0,0 -1,0 0,0 0,0 -1,0 -1,0 -1,-1 0,0 0,0 0,0 0,0 0,0 0,0 -1,0 0,0 0,0 -1,0 -1,0 -1,-1 0,0 0,0 0,0 0,0 0,0 0,0 -1,0 0,0 0,0 -1,0 -1,0 -1,-1 0,0 0,0 0,0 0,0 0,0 0,0 -1,0 0,0 0,0 -1,0 -1,0 -1,-1 0,0 0,0 0,0 0,0 0,0 0,0 -1,0 0,0 0,0 -1,0 -1,0 -1,-1 0,0 0,0 0,0 0,0 0,0 0,0 -1,0 0,0 0,0 -1,0 -1,0 -1,-1 0,0 0,0 0,0 0,0 0,0 0,0 -1,0 0,0 0,0 -1,0 -1,0 -1,-1 0,0 0,0 0,0 0,0 0,0 0,0 -1,0 0,0 0,0 -1,0 -1,0 -1,-1 0,0 0,0 0,0 0,0 0,0 0,0 -1,0 0,0 0,0 -1,0 -1,0 -1,-1 0,0 0,0 0,0 0,0 0,0 0,0 -1,0 0,0 0,0 -1,0 -1,0 -1,-1 0,0 0,0 0,0 0,0 0,0 0,0 -1,0 0,0 0,0l0 -1c0,0 0,0 0,0 0,0 0,0 0,0 0,-1 0,0 1,0 0,-1 0,-1 0,-1 0,0 0,0 0,0 0,0 0,0 0,0 0,-1 0,0 1,0 0,-1 0,-1 0,-1 0,0 0,0 0,0 0,0 0,0 0,0 0,-1 0,0 1,0 0,-1 0,-1 0,-1 0,0 0,0 0,0 0,0 0,0 0,0 0,-1 0,0 1,0 0,-1 0,-1 0,-1 0,0 0,0 0,0 0,0 0,0 0,0 0,-1 0,0 1,0 0,-1 0,-1 0,-1 0,0 0,0 0,0 0,0 0,0 0,0 0,-1 0,0 1,0 0,-1 0,-1 0,-1 0,0 0,0 0,0 0,0 0,0 0,0 0,-1 0,0 1,0 0,-1 0,-1 0,-1 0,0 0,0 0,0 0,0 0,0 0,0 0,-1 0,0 1,0 0,-1 0,-1 0,-1 0,0 0,0 0,0 0,0 0,0 0,0 0,-1 0,0 1,0 0,-1 0,-1 0,-1 0,0 0,0 0,0 0,0 0,0 0,0 0,-1 0,0 1,0 0,-1 0,-1 0,-1 0,0 0,0 0,0 0,0 0,0 0,0 0,-1 0,0 1,0 0,-1 0,-1 0,-1 0,0 0,0 0,0 0,0 0,0 0,0 0,-1 0,0 1,0 0,-1 0,-1 0,-1 0,0 0,0 0,0 0,0 0,0 0,0 0,-1 0,0 1,0 0,-3 0,-12 -1,-13 0,0 0,0 0,0z" id="el_WLWZvqXBji"/>
  <path d="M54 1c0,0 0,0 0,0 0,0 0,0 0,0 0,1 0,1 -1,1 0,0 0,0 0,0 0,0 0,0 0,0 0,0 0,0 0,0 0,1 0,1 -1,1 0,0 0,0 0,0 0,0 0,0 0,0 0,0 0,0 0,0 0,1 0,1 -1,1 0,0 0,0 0,0 0,0 0,0 0,0 0,0 0,0 0,0 0,1 0,1 -1,1 0,0 0,0 0,0 0,0 0,0 0,0 0,0 0,0 0,0 0,1 0,1 -1,1 0,0 0,0 0,0 0,0 0,0 0,0 0,0 0,0 0,0 0,1 0,1 -1,1 0,0 0,0 0,0 0,0 0,0 0,0 0,0 0,0 0,0 0,1 0,1 -1,1 0,0 0,0 0,0 0,0 0,0 0,0 0,0 0,0 0,0 0,1 0,1 -1,1 0,0 0,0 0,0 0,0 0,0 0,0 0,0 0,0 0,0 0,1 0,1 -1,1 0,0 0,0 0,0 0,0 0,0 0,0 0,0 0,0 0,0 0,1 0,1 -1,1 0,0 0,0 0,0 0,0 0,0 0,0 0,0 0,0 0,0 0,1 0,1 -1,1 0,0 0,0 0,0 0,0 0,0 0,0 0,0 0,0 0,0 0,1 0,1 -1,1 0,0 0,0 0,0 0,0 0,0 0,0 0,0 0,0 0,0 0,1 0,1 -1,1 0,0 0,0 0,0 0,0 0,0 0,0 0,0 0,0 0,0 0,1 0,1 -1,1 0,0 0,0 0,0 0,0 0,0 0,0 0,0 0,0 0,0 0,1 0,1 -1,1 0,0 0,0 0,0 0,0 0,0 0,0 0,0 0,0 0,0 0,1 0,1 -1,1 0,0 0,0 0,0 0,0 0,0 0,0 0,0 0,0 0,0 0,1 0,1 -1,1 0,0 0,0 0,0 0,0 0,0 0,0 0,0 0,0 0,0 0,1 0,1 -1,1 0,0 0,0 0,0 0,0 0,0 0,0 0,0 0,0 0,0 0,1 0,1 -1,1 0,0 0,0 0,0l0 0c0,0 0,0 0,0 0,0 0,0 -1,0 0,1 0,1 0,1 0,0 0,0 0,0 0,0 0,0 0,0 0,0 0,0 -1,0 0,1 0,1 0,1 0,0 0,0 0,0 0,0 0,0 0,0 0,0 0,0 -1,0 0,1 0,1 0,1 0,0 0,0 0,0 0,0 0,0 0,0 0,0 0,0 -1,0 0,1 0,1 0,1 0,0 0,0 0,0 0,0 0,0 0,0 0,0 0,0 -1,0 0,1 0,1 0,1 0,0 0,0 0,0 0,0 0,0 0,0 0,0 0,0 -1,0 0,1 0,1 0,1 0,0 0,0 0,0 0,0 0,0 0,0 0,0 0,0 -1,0l0 1c1,0 1,0 1,0 0,0 0,0 0,0 0,0 0,0 0,1 0,0 0,-1 0,0 1,0 1,0 1,0 0,0 0,0 0,0 0,0 0,0 0,1 0,0 0,-1 0,0 1,0 1,0 1,0 0,0 0,0 0,0 0,0 0,0 0,1 0,0 0,-1 0,0 1,0 1,0 1,0 0,0 0,0 0,0 0,0 0,0 0,1 0,0 0,-1 0,0 1,0 1,0 1,0 0,0 0,0 0,0 0,0 0,0 0,1 0,0 0,-1 0,0 1,0 1,0 1,0 0,0 0,0 0,0 0,0 0,0 0,1 0,0 0,-1 0,0 1,0 1,0 1,0 0,0 0,0 0,0 0,0 0,0 0,1 0,0 0,-1 0,0 1,0 1,0 1,0 0,0 0,0 0,0 0,0 0,0 0,1 0,0 0,-1 0,0 1,0 1,0 1,0 0,0 0,0 0,0 0,0 0,0 0,1 0,0 0,-1 0,0 1,0 1,0 1,0 0,0 0,0 0,0 0,0 0,0 0,1 0,0 0,-1 0,0 1,0 1,0 1,0 0,0 0,0 0,0 0,0 0,0 0,1 0,0 0,-1 0,0 1,0 1,0 1,0 0,0 0,0 0,0 0,0 0,0 0,1 0,0 0,-1 0,0 1,0 1,0 1,0 0,0 0,0 0,0 0,0 0,0 0,1 0,0 0,-1 0,0 1,0 1,0 1,0 0,0 0,0 0,0 0,0 0,0 0,1 0,0 0,-1 0,0 1,0 1,0 1,0 0,0 0,0 0,0 0,0 0,0 0,1 0,0 0,-1 0,0 1,0 1,0 1,0 0,0 0,0 0,0 0,0 0,0 0,1 0,0 0,-1 0,0 1,0 1,0 1,0 0,0 0,0 0,0 0,0 0,0 0,1 0,0 0,-1 0,0 1,0 1,0 1,0 0,0 0,0 0,0 0,0 0,0 0,1 0,0 0,-1 0,0 1,0 1,0 1,0 0,0 0,0 0,0 0,0 0,0 0,1 0,0 0,-1 0,0 1,0 1,0 1,0 0,0 0,0 0,0 0,0 0,0 0,1 0,0 0,-1 0,0 1,0 1,0 1,0 0,0 0,0 0,0 0,0 0,0 0,1 0,0 0,-1 0,0 1,0 1,0 1,0 0,0 0,0 0,0 0,0 0,0 0,1 0,0 0,-1 0,0 1,0 1,0 1,0 0,0 0,0 0,0 0,0 0,0 0,1 0,0 0,-1 0,0 1,0 1,0 1,0 0,0 0,0 0,0 0,0 0,0 0,1 0,0 0,-1 0,0 1,0 1,0 1,0 0,0 0,0 0,0 0,0 0,0 0,1 0,0 0,-1 0,0 1,0 1,0 1,0 0,0 0,0 0,0 0,0 0,0 0,1 0,0 0,-1 0,0l1 0 0 -13 0 0c-1,0 -1,0 -1,-1 0,0 0,0 0,0 0,0 0,0 0,0 -1,0 -1,0 0,0 -1,0 -1,0 -1,-1 0,0 0,0 0,0 0,0 0,0 0,0 -1,0 -1,0 0,0 -1,0 -1,0 -1,-1 0,0 0,0 0,0 0,0 0,0 0,0 -1,0 -1,0 0,0 -1,0 -1,0 -1,-1 0,0 0,0 0,0 0,0 0,0 0,0 -1,0 -1,0 0,0 -1,0 -1,0 -1,-1 0,0 0,0 0,0 0,0 0,0 0,0 -1,0 -1,0 0,0 -1,0 -1,0 -1,-1 0,0 0,0 0,0 0,0 0,0 0,0 -1,0 -1,0 0,0 -1,0 -1,0 -1,-1 0,0 0,0 0,0 0,0 0,0 0,0 -1,0 -1,0 0,0 -1,0 -1,0 -1,-1 0,0 0,0 0,0 0,0 0,0 0,0 -1,0 -1,0 0,0 -1,0 -1,0 -1,-1 0,0 0,0 0,0 0,0 0,0 0,0 -1,0 -1,0 0,0 -1,0 -1,0 -1,-1 0,0 0,0 0,0 0,0 0,0 0,0 -1,0 -1,0 0,0 -1,0 -1,0 -1,-1 0,0 0,0 0,0 0,0 0,0 0,0 -1,0 -1,0 0,0 -1,0 -1,0 -1,-1 0,0 0,0 0,0 0,0 0,0 0,0 -1,0 -1,0 0,0 -1,0 -1,0 -1,-1 0,0 0,0 0,0 0,0 0,0 0,0 -1,0 0,0 0,0l0 -1c0,0 0,0 0,0 0,0 0,0 0,0 0,-1 0,0 1,0 0,-1 -1,-1 0,-1 0,0 0,0 0,0 0,0 0,0 0,0 0,-1 0,0 1,0 0,-1 -1,-1 0,-1 0,0 0,0 0,0 0,0 0,0 0,0 0,-1 0,0 1,0 0,-1 -1,-1 0,-1 0,0 0,0 0,0 0,0 0,0 0,0 0,-1 0,0 1,0 0,-1 -1,-1 0,-1 0,0 0,0 0,0 0,0 0,0 0,0 0,-1 0,0 1,0 0,-1 -1,-1 0,-1 0,0 0,0 0,0 0,0 0,0 0,0 0,-1 0,0 1,0 0,-1 -1,-1 0,-1 0,0 0,0 0,0 0,0 0,0 0,0 0,-1 0,0 1,0 0,-1 -1,-1 0,-1 0,0 0,0 0,0 0,0 0,0 0,0 0,-1 0,0 1,0 0,-1 -1,-1 0,-1 0,0 0,0 0,0 0,0 0,0 0,0 0,-1 0,0 1,0 0,-1 -1,-1 0,-1 0,0 0,0 0,0 0,0 0,0 0,0 0,-1 0,0 1,0 0,-1 -1,-1 0,-1 0,0 0,0 0,0 0,0 0,0 0,0 0,-1 0,0 1,0 0,-1 -1,-1 0,-1 0,0 0,0 0,0 0,0 0,0 0,0 0,-1 0,0 1,0 0,-1 -1,-1 0,-1 0,0 0,0 0,0 0,0 0,0 0,0 0,-1 0,0 1,0 0,-3 0,-12 -1,-13 0,0 0,0 0,0z" id="el_VbC2H8Ltc6"/>
  <path d="M79 1c0,0 0,0 0,0 0,0 0,0 0,0 0,1 0,1 -1,1 0,0 0,0 0,0 0,0 0,0 0,0 0,0 0,0 0,0 0,1 0,1 -1,1 0,0 0,0 0,0 0,0 0,0 0,0 0,0 0,0 0,0 0,1 0,1 -1,1 0,0 0,0 0,0 0,0 0,0 0,0 0,0 0,0 0,0 0,1 0,1 -1,1 0,0 0,0 0,0 0,0 0,0 0,0 0,0 0,0 0,0 0,1 0,1 -1,1 0,0 0,0 0,0 0,0 0,0 0,0 0,0 0,0 0,0 0,1 0,1 -1,1 0,0 0,0 0,0 0,0 0,0 0,0 0,0 0,0 0,0 0,1 0,1 -1,1 0,0 0,0 0,0 0,0 0,0 0,0 0,0 0,0 0,0 0,1 0,1 -1,1 0,0 0,0 0,0 0,0 0,0 0,0 0,0 0,0 0,0 0,1 0,1 -1,1 0,0 0,0 0,0 0,0 0,0 0,0 0,0 0,0 0,0 0,1 0,1 -1,1 0,0 0,0 0,0 0,0 0,0 0,0 0,0 0,0 0,0 0,1 0,1 -1,1 0,0 0,0 0,0 0,0 0,0 0,0 0,0 0,0 0,0 0,1 0,1 -1,1 0,0 0,0 0,0 0,0 0,0 0,0 0,0 0,0 0,0 0,1 0,1 -1,1 0,0 0,0 0,0 0,0 0,0 0,0 0,0 0,0 0,0 0,1 0,1 -1,1 0,0 0,0 0,0 0,0 0,0 0,0 0,0 0,0 0,0 0,1 0,1 -1,1 0,0 0,0 0,0 0,0 0,0 0,0 0,0 0,0 0,0 0,1 0,1 -1,1 0,0 0,0 0,0 0,0 0,0 0,0 0,0 0,0 0,0 0,1 0,1 -1,1 0,0 0,0 0,0 0,0 0,0 0,0 0,0 0,0 0,0 0,1 0,1 -1,1 0,0 0,0 0,0 0,0 0,0 0,0 0,0 0,0 0,0 0,1 0,1 -1,1 0,0 0,0 0,0l0 0c0,0 0,0 0,0 0,0 0,0 -1,0 0,1 0,1 0,1 0,0 0,0 0,0 0,0 0,0 0,0 0,0 0,0 -1,0 0,1 0,1 0,1 0,0 0,0 0,0 0,0 0,0 0,0 0,0 0,0 -1,0 0,1 0,1 0,1 0,0 0,0 0,0 0,0 0,0 0,0 0,0 0,0 -1,0 0,1 0,1 0,1 0,0 0,0 0,0 0,0 0,0 0,0 0,0 0,0 -1,0 0,1 0,1 0,1 0,0 0,0 0,0 0,0 0,0 0,0 0,0 0,0 -1,0 0,1 0,1 0,1 0,0 0,0 0,0 0,0 0,0 0,0 0,0 0,0 -1,0l0 1c1,0 1,0 1,0 0,0 0,0 0,0 0,0 0,0 0,1 0,0 0,-1 0,0 1,0 1,0 1,0 0,0 0,0 0,0 0,0 0,0 0,1 0,0 0,-1 0,0 1,0 1,0 1,0 0,0 0,0 0,0 0,0 0,0 0,1 0,0 0,-1 0,0 1,0 1,0 1,0 0,0 0,0 0,0 0,0 0,0 0,1 0,0 0,-1 0,0 1,0 1,0 1,0 0,0 0,0 0,0 0,0 0,0 0,1 0,0 0,-1 0,0 1,0 1,0 1,0 0,0 0,0 0,0 0,0 0,0 0,1 0,0 0,-1 0,0 1,0 1,0 1,0 0,0 0,0 0,0 0,0 0,0 0,1 0,0 0,-1 0,0 1,0 1,0 1,0 0,0 0,0 0,0 0,0 0,0 0,1 0,0 0,-1 0,0 1,0 1,0 1,0 0,0 0,0 0,0 0,0 0,0 0,1 0,0 0,-1 0,0 1,0 1,0 1,0 0,0 0,0 0,0 0,0 0,0 0,1 0,0 0,-1 0,0 1,0 1,0 1,0 0,0 0,0 0,0 0,0 0,0 0,1 0,0 0,-1 0,0 1,0 1,0 1,0 0,0 0,0 0,0 0,0 0,0 0,1 0,0 0,-1 0,0 1,0 1,0 1,0 0,0 0,0 0,0 0,0 0,0 0,1 0,0 0,-1 0,0 1,0 1,0 1,0 0,0 0,0 0,0 0,0 0,0 0,1 0,0 0,-1 0,0 1,0 1,0 1,0 0,0 0,0 0,0 0,0 0,0 0,1 0,0 0,-1 0,0 1,0 1,0 1,0 0,0 0,0 0,0 0,0 0,0 0,1 0,0 0,-1 0,0 1,0 1,0 1,0 0,0 0,0 0,0 0,0 0,0 0,1 0,0 0,-1 0,0 1,0 1,0 1,0 0,0 0,0 0,0 0,0 0,0 0,1 0,0 0,-1 0,0 1,0 1,0 1,0 0,0 0,0 0,0 0,0 0,0 0,1 0,0 0,-1 0,0 1,0 1,0 1,0 0,0 0,0 0,0 0,0 0,0 0,1 0,0 0,-1 0,0 1,0 1,0 1,0 0,0 0,0 0,0 0,0 0,0 0,1 0,0 0,-1 0,0 1,0 1,0 1,0 0,0 0,0 0,0 0,0 0,0 0,1 0,0 0,-1 0,0 1,0 1,0 1,0 0,0 0,0 0,0 0,0 0,0 0,1 0,0 0,-1 0,0 1,0 1,0 1,0 0,0 0,0 0,0 0,0 0,0 0,1 0,0 0,-1 0,0 1,0 1,0 1,0 0,0 0,0 0,0 0,0 0,0 0,1 0,0 0,-1 0,0 1,0 1,0 1,0 0,0 0,0 0,0 0,0 0,0 0,1 0,0 0,-1 0,0l1 0 0 -13 0 0c-1,0 -1,0 -1,-1 0,0 0,0 0,0 0,0 0,0 0,0 -1,0 -1,0 0,0 -1,0 -1,0 -1,-1 0,0 0,0 0,0 0,0 0,0 0,0 -1,0 -1,0 0,0 -1,0 -1,0 -1,-1 0,0 0,0 0,0 0,0 0,0 0,0 -1,0 -1,0 0,0 -1,0 -1,0 -1,-1 0,0 0,0 0,0 0,0 0,0 0,0 -1,0 -1,0 0,0 -1,0 -1,0 -1,-1 0,0 0,0 0,0 0,0 0,0 0,0 -1,0 -1,0 0,0 -1,0 -1,0 -1,-1 0,0 0,0 0,0 0,0 0,0 0,0 -1,0 -1,0 0,0 -1,0 -1,0 -1,-1 0,0 0,0 0,0 0,0 0,0 0,0 -1,0 -1,0 0,0 -1,0 -1,0 -1,-1 0,0 0,0 0,0 0,0 0,0 0,0 -1,0 -1,0 0,0 -1,0 -1,0 -1,-1 0,0 0,0 0,0 0,0 0,0 0,0 -1,0 -1,0 0,0 -1,0 -1,0 -1,-1 0,0 0,0 0,0 0,0 0,0 0,0 -1,0 -1,0 0,0 -1,0 -1,0 -1,-1 0,0 0,0 0,0 0,0 0,0 0,0 -1,0 -1,0 0,0 -1,0 -1,0 -1,-1 0,0 0,0 0,0 0,0 0,0 0,0 -1,0 -1,0 0,0 -1,0 -1,0 -1,-1 0,0 0,0 0,0 0,0 0,0 0,0 -1,0 0,0 0,0l0 -1c0,0 0,0 0,0 0,0 0,0 0,0 0,-1 0,0 1,0 0,-1 -1,-1 0,-1 0,0 0,0 0,0 0,0 0,0 0,0 0,-1 0,0 1,0 0,-1 -1,-1 0,-1 0,0 0,0 0,0 0,0 0,0 0,0 0,-1 0,0 1,0 0,-1 -1,-1 0,-1 0,0 0,0 0,0 0,0 0,0 0,0 0,-1 0,0 1,0 0,-1 -1,-1 0,-1 0,0 0,0 0,0 0,0 0,0 0,0 0,-1 0,0 1,0 0,-1 -1,-1 0,-1 0,0 0,0 0,0 0,0 0,0 0,0 0,-1 0,0 1,0 0,-1 -1,-1 0,-1 0,0 0,0 0,0 0,0 0,0 0,0 0,-1 0,0 1,0 0,-1 -1,-1 0,-1 0,0 0,0 0,0 0,0 0,0 0,0 0,-1 0,0 1,0 0,-1 -1,-1 0,-1 0,0 0,0 0,0 0,0 0,0 0,0 0,-1 0,0 1,0 0,-1 -1,-1 0,-1 0,0 0,0 0,0 0,0 0,0 0,0 0,-1 0,0 1,0 0,-1 -1,-1 0,-1 0,0 0,0 0,0 0,0 0,0 0,0 0,-1 0,0 1,0 0,-1 -1,-1 0,-1 0,0 0,0 0,0 0,0 0,0 0,0 0,-1 0,0 1,0 0,-1 -1,-1 0,-1 0,0 0,0 0,0 0,0 0,0 0,0 0,-1 0,0 1,0 0,-3 0,-12 -1,-13 0,0 0,0 0,0z" id="el_nZ4IqCaikA"/>
  <path d="M104 1c0,0 0,0 0,0 0,0 0,0 0,0 0,1 0,1 -1,1 0,0 0,0 0,0 0,0 0,0 0,0 0,0 0,0 0,0 0,1 0,1 -1,1 0,0 0,0 0,0 0,0 0,0 0,0 0,0 0,0 0,0 0,1 0,1 -1,1 0,0 0,0 0,0 0,0 0,0 0,0 0,0 0,0 0,0 0,1 0,1 -1,1 0,0 0,0 0,0 0,0 0,0 0,0 0,0 0,0 0,0 0,1 0,1 -1,1 0,0 0,0 0,0 0,0 0,0 0,0 0,0 0,0 0,0 0,1 0,1 -1,1 0,0 0,0 0,0 0,0 0,0 0,0 0,0 0,0 0,0 0,1 0,1 -1,1 0,0 0,0 0,0 0,0 0,0 0,0 0,0 0,0 0,0 0,1 0,1 -1,1 0,0 0,0 0,0 0,0 0,0 0,0 0,0 0,0 0,0 0,1 0,1 -1,1 0,0 0,0 0,0 0,0 0,0 0,0 0,0 0,0 0,0 0,1 0,1 -1,1 0,0 0,0 0,0 0,0 0,0 0,0 0,0 0,0 0,0 0,1 0,1 -1,1 0,0 0,0 0,0 0,0 0,0 0,0 0,0 0,0 0,0 0,1 0,1 -1,1 0,0 0,0 0,0 0,0 0,0 0,0 0,0 0,0 0,0 0,1 0,1 -1,1 0,0 0,0 0,0 0,0 0,0 0,0 0,0 0,0 0,0 0,1 0,1 -1,1 0,0 0,0 0,0 0,0 0,0 0,0 0,0 0,0 0,0 0,1 0,1 -1,1 0,0 0,0 0,0 0,0 0,0 0,0 0,0 0,0 0,0 0,1 0,1 -1,1 0,0 0,0 0,0 0,0 0,0 0,0 0,0 0,0 0,0 0,1 0,1 -1,1 0,0 0,0 0,0 0,0 0,0 0,0 0,0 0,0 0,0 0,1 0,1 -1,1 0,0 0,0 0,0 0,0 0,0 0,0 0,0 0,0 0,0 0,1 0,1 -1,1 0,0 0,0 0,0l0 0c0,0 0,0 0,0 0,0 0,0 -1,0 0,1 0,1 0,1 0,0 0,0 0,0 0,0 0,0 0,0 0,0 0,0 -1,0 0,1 0,1 0,1 0,0 0,0 0,0 0,0 0,0 0,0 0,0 0,0 -1,0 0,1 0,1 0,1 0,0 0,0 0,0 0,0 0,0 0,0 0,0 0,0 -1,0 0,1 0,1 0,1 0,0 0,0 0,0 0,0 0,0 0,0 0,0 0,0 -1,0 0,1 0,1 0,1 0,0 0,0 0,0 0,0 0,0 0,0 0,0 0,0 -1,0 0,1 0,1 0,1 0,0 0,0 0,0 0,0 0,0 0,0 0,0 0,0 -1,0l0 1c1,0 1,0 1,0 0,0 0,0 0,0 0,0 0,0 0,1 0,0 0,-1 0,0 1,0 1,0 1,0 0,0 0,0 0,0 0,0 0,0 0,1 0,0 0,-1 0,0 1,0 1,0 1,0 0,0 0,0 0,0 0,0 0,0 0,1 0,0 0,-1 0,0 1,0 1,0 1,0 0,0 0,0 0,0 0,0 0,0 0,1 0,0 0,-1 0,0 1,0 1,0 1,0 0,0 0,0 0,0 0,0 0,0 0,1 0,0 0,-1 0,0 1,0 1,0 1,0 0,0 0,0 0,0 0,0 0,0 0,1 0,0 0,-1 0,0 1,0 1,0 1,0 0,0 0,0 0,0 0,0 0,0 0,1 0,0 0,-1 0,0 1,0 1,0 1,0 0,0 0,0 0,0 0,0 0,0 0,1 0,0 0,-1 0,0 1,0 1,0 1,0 0,0 0,0 0,0 0,0 0,0 0,1 0,0 0,-1 0,0 1,0 1,0 1,0 0,0 0,0 0,0 0,0 0,0 0,1 0,0 0,-1 0,0 1,0 1,0 1,0 0,0 0,0 0,0 0,0 0,0 0,1 0,0 0,-1 0,0 1,0 1,0 1,0 0,0 0,0 0,0 0,0 0,0 0,1 0,0 0,-1 0,0 1,0 1,0 1,0 0,0 0,0 0,0 0,0 0,0 0,1 0,0 0,-1 0,0 1,0 1,0 1,0 0,0 0,0 0,0 0,0 0,0 0,1 0,0 0,-1 0,0 1,0 1,0 1,0 0,0 0,0 0,0 0,0 0,0 0,1 0,0 0,-1 0,0 1,0 1,0 1,0 0,0 0,0 0,0 0,0 0,0 0,1 0,0 0,-1 0,0 1,0 1,0 1,0 0,0 0,0 0,0 0,0 0,0 0,1 0,0 0,-1 0,0 1,0 1,0 1,0 0,0 0,0 0,0 0,0 0,0 0,1 0,0 0,-1 0,0 1,0 1,0 1,0 0,0 0,0 0,0 0,0 0,0 0,1 0,0 0,-1 0,0 1,0 1,0 1,0 0,0 0,0 0,0 0,0 0,0 0,1 0,0 0,-1 0,0 1,0 1,0 1,0 0,0 0,0 0,0 0,0 0,0 0,1 0,0 0,-1 0,0 1,0 1,0 1,0 0,0 0,0 0,0 0,0 0,0 0,1 0,0 0,-1 0,0 1,0 1,0 1,0 0,0 0,0 0,0 0,0 0,0 0,1 0,0 0,-1 0,0 1,0 1,0 1,0 0,0 0,0 0,0 0,0 0,0 0,1 0,0 0,-1 0,0 1,0 1,0 1,0 0,0 0,0 0,0 0,0 0,0 0,1 0,0 0,-1 0,0 1,0 1,0 1,0 0,0 0,0 0,0 0,0 0,0 0,1 0,0 0,-1 0,0l1 0 0 -13 0 0c-1,0 -1,0 -1,-1 0,0 0,0 0,0 0,0 0,0 0,0 -1,0 -1,0 0,0 -1,0 -1,0 -1,-1 0,0 0,0 0,0 0,0 0,0 0,0 -1,0 -1,0 0,0 -1,0 -1,0 -1,-1 0,0 0,0 0,0 0,0 0,0 0,0 -1,0 -1,0 0,0 -1,0 -1,0 -1,-1 0,0 0,0 0,0 0,0 0,0 0,0 -1,0 -1,0 0,0 -1,0 -1,0 -1,-1 0,0 0,0 0,0 0,0 0,0 0,0 -1,0 -1,0 0,0 -1,0 -1,0 -1,-1 0,0 0,0 0,0 0,0 0,0 0,0 -1,0 -1,0 0,0 -1,0 -1,0 -1,-1 0,0 0,0 0,0 0,0 0,0 0,0 -1,0 -1,0 0,0 -1,0 -1,0 -1,-1 0,0 0,0 0,0 0,0 0,0 0,0 -1,0 -1,0 0,0 -1,0 -1,0 -1,-1 0,0 0,0 0,0 0,0 0,0 0,0 -1,0 -1,0 0,0 -1,0 -1,0 -1,-1 0,0 0,0 0,0 0,0 0,0 0,0 -1,0 -1,0 0,0 -1,0 -1,0 -1,-1 0,0 0,0 0,0 0,0 0,0 0,0 -1,0 -1,0 0,0 -1,0 -1,0 -1,-1 0,0 0,0 0,0 0,0 0,0 0,0 -1,0 -1,0 0,0 -1,0 -1,0 -1,-1 0,0 0,0 0,0 0,0 0,0 0,0 -1,0 0,0 0,0l0 -1c0,0 0,0 0,0 0,0 0,0 0,0 0,-1 0,0 1,0 0,-1 -1,-1 0,-1 0,0 0,0 0,0 0,0 0,0 0,0 0,-1 0,0 1,0 0,-1 -1,-1 0,-1 0,0 0,0 0,0 0,0 0,0 0,0 0,-1 0,0 1,0 0,-1 -1,-1 0,-1 0,0 0,0 0,0 0,0 0,0 0,0 0,-1 0,0 1,0 0,-1 -1,-1 0,-1 0,0 0,0 0,0 0,0 0,0 0,0 0,-1 0,0 1,0 0,-1 -1,-1 0,-1 0,0 0,0 0,0 0,0 0,0 0,0 0,-1 0,0 1,0 0,-1 -1,-1 0,-1 0,0 0,0 0,0 0,0 0,0 0,0 0,-1 0,0 1,0 0,-1 -1,-1 0,-1 0,0 0,0 0,0 0,0 0,0 0,0 0,-1 0,0 1,0 0,-1 -1,-1 0,-1 0,0 0,0 0,0 0,0 0,0 0,0 0,-1 0,0 1,0 0,-1 -1,-1 0,-1 0,0 0,0 0,0 0,0 0,0 0,0 0,-1 0,0 1,0 0,-1 -1,-1 0,-1 0,0 0,0 0,0 0,0 0,0 0,0 0,-1 0,0 1,0 0,-1 -1,-1 0,-1 0,0 0,0 0,0 0,0 0,0 0,0 0,-1 0,0 1,0 0,-1 -1,-1 0,-1 0,0 0,0 0,0 0,0 0,0 0,0 0,-1 0,0 1,0 0,-3 0,-12 -1,-13 0,0 0,0 0,0z" id="el_bbFsNgDlXS"/>
 </g>
</svg>