<?xml version="1.0" encoding="UTF-8"?>
<!DOCTYPE svg PUBLIC "-//W3C//DTD SVG 1.0//EN" "http://www.w3.org/TR/2001/REC-SVG-20010904/DTD/svg10.dtd">
<!-- Creator: CorelDRAW X7 -->
<svg xmlns="http://www.w3.org/2000/svg" xml:space="preserve" width="130px" height="130px" version="1.0" style="shape-rendering:geometricPrecision; text-rendering:geometricPrecision; image-rendering:optimizeQuality; fill-rule:evenodd; clip-rule:evenodd"
viewBox="0 0 130 130"
 xmlns:xlink="http://www.w3.org/1999/xlink">
 <defs>
  <style type="text/css">
   <![CDATA[
    .fil0 {fill:#FFC85A}
   ]]>
  </style>
 </defs>
 <g id="Layer_x0020_1">
  <metadata id="CorelCorpID_0Corel-Layer"/>
  <g id="_1289013328">
   <path class="fil0" d="M42 98l0 0c0,0 0,0 0,1l0 0c1,0 1,0 1,0l0 1c0,0 0,0 0,0l0 0c1,0 1,0 1,1 0,0 0,0 0,0l0 0c0,0 0,0 0,1 1,-1 0,-1 0,0l1 0 0 0c6,-3 13,-6 18,-10 3,-2 6,-4 9,-6 2,-3 6,-5 8,-8 9,-10 17,-20 22,-32 2,-5 3,-9 5,-13l0 -1 0 0 0 -1 -1 0 0 -1 0 -1 0 0c-1,0 -1,0 -1,0l1 0 -1 -1 0 0 0 -1 0 0 0 0 0 0c-1,0 -1,0 -1,-1l0 0c0,0 0,0 0,0l0 0 0 -1 0 0c-1,0 -1,0 -1,-1l0 0 0 0c-1,3 -1,6 -2,9 -1,3 -2,6 -3,8 -1,1 -2,4 -3,6 -1,3 -4,8 -6,11 -1,1 -3,3 -3,5 -5,7 -17,19 -24,23 -4,3 -11,7 -15,9 -2,1 -3,2 -5,3z"/>
   <path class="fil0" d="M79 52c0,1 1,1 0,1l0 1c0,0 0,0 -1,0l0 0c0,1 1,1 0,1l0 0c0,0 0,0 0,0l0 1c-1,1 -1,2 -2,3l-4 5c-1,1 -2,2 -3,3 -4,5 -5,5 -10,9 -3,3 -11,8 -16,10 -3,2 -5,2 -6,4l0 0c0,0 0,0 0,1l0 0c1,0 1,0 1,1l0 0c0,0 0,0 0,0l0 0c1,0 0,0 0,1l0 0c1,0 1,0 1,0l0 1c3,-2 8,-4 10,-6 3,-1 8,-4 9,-5l9 -7c2,-1 6,-6 8,-7 2,-2 5,-7 7,-10 2,-2 6,-7 7,-10 1,-2 2,-4 3,-7 1,-2 2,-4 3,-6 2,-7 3,-11 4,-18l0 0c-1,0 -1,0 -1,0 0,0 0,0 0,-1l0 0c-1,-1 -2,-2 -3,-3 0,3 -1,4 -1,7 0,2 0,1 -1,2 0,0 0,3 -1,4 0,1 0,3 0,3 -1,1 -1,0 -1,1 0,1 -2,7 -3,7 0,0 0,2 -1,3 0,1 -1,3 -2,4 -1,2 -2,4 -3,5 -1,1 -1,4 -3,2z"/>
   <path class="fil0" d="M39 94l0 0c1,0 0,0 0,0l0 0c1,0 1,0 1,1l0 0c0,0 0,0 0,1l0 0c1,0 1,0 1,0l0 1c0,0 0,0 0,0l0 0c1,0 1,0 1,1l0 0c2,-1 3,-2 5,-3 4,-2 11,-6 15,-9 7,-4 19,-16 24,-23 0,-2 2,-4 3,-5 2,-3 5,-8 6,-11 1,-2 2,-5 3,-6 1,-2 2,-5 3,-8 1,-3 1,-6 2,-9l0 -1c-1,0 -1,0 -1,0l0 0c0,0 0,0 0,0l0 -1c0,0 0,0 0,0l-1 -1c0,0 0,0 0,0l0 0 0 -1c-1,0 -1,0 -1,0l0 -1c0,0 0,0 0,0 -1,0 -1,0 -1,0l0 -1c-1,7 -2,11 -4,18 -1,2 -2,4 -3,6 -1,3 -2,5 -3,7 -1,3 -5,8 -7,10 -2,3 -5,8 -7,10 -2,1 -6,6 -8,7l-9 7c-1,1 -6,4 -9,5 -2,2 -7,4 -10,6z"/>
   <path class="fil0" d="M45 102l0 1 0 0c1,0 0,0 0,0 1,0 1,0 1,1l0 0c0,0 0,0 0,0l1 1c0,0 0,0 0,0l0 1 0 0c1,0 1,0 1,0l0 1 0 0c2,-2 7,-4 9,-6 1,0 3,-1 4,-2 9,-5 14,-9 22,-17 5,-5 10,-12 14,-18 2,-2 8,-12 9,-16 1,-2 2,-3 3,-5l0 -1 0 -1 -1 -1 0 -1 0 -1 0 0 0 -1 0 -1 0 -1 0 0 -1 0 1 -1 -1 0 0 -1 0 0 0 0c-2,4 -3,8 -5,13 -5,12 -13,22 -22,32 -2,3 -6,5 -8,8 -3,2 -6,4 -9,6 -5,4 -12,7 -18,10z"/>
   <path class="fil0" d="M54 115l0 0c1,0 0,0 1,0l0 1c0,0 0,0 0,0 1,0 0,0 0,1l1 0c0,0 0,0 0,1l1 0c0,0 0,0 0,1 0,-1 0,-1 0,0l1 0c0,0 0,0 0,1 0,0 0,0 0,0l1 1c0,0 0,0 0,0 0,0 0,0 0,0l1 1c0,0 0,0 0,1l0 0c1,0 1,0 1,0 0,0 0,0 0,0l0 1c1,0 1,0 1,0 0,0 0,0 0,1 0,-1 0,-1 0,0l0 0 1 1c1,0 1,0 1,1 0,-1 0,-1 0,0l1 1 0 0c0,-1 0,-1 1,-1l1 -1c0,-1 0,-1 0,-1 0,0 0,0 1,0 0,0 0,0 0,0 0,-1 0,0 0,0 0,-1 0,-1 0,-1l1 0c0,0 0,0 0,0 0,-1 0,-1 0,-1l1 0c0,-1 0,-1 0,-1 0,0 0,0 0,0 0,0 0,0 1,0l0 -1 0 0c0,-1 0,-1 1,-1l0 0 0 0c0,-1 0,-1 1,-1l0 0c0,-1 0,0 0,0l0 -1c0,0 0,0 1,0l0 0c0,-1 0,-1 0,-1l1 0c0,-1 0,-1 0,-1l0 0c0,-1 0,-1 1,-1l0 0c0,-1 0,-1 1,-1l0 0c0,-1 0,-1 0,0 0,-1 0,-1 0,-1l0 0c0,-1 0,0 1,0l0 -1c0,-1 0,-1 1,-1l0 0 0 0c0,-1 0,-1 0,-1l0 0c0,0 0,0 1,0l0 -1c0,0 0,0 0,0 0,0 0,0 0,0l0 0c0,-1 0,-1 1,-1 0,0 0,0 0,0l0 0c0,-1 0,-1 0,-1l1 0c0,-1 0,-1 0,-1l0 0c0,0 0,0 1,0l0 -1c0,0 0,0 0,0l0 -1c0,0 0,0 1,0l0 0c0,-1 0,-1 0,-1l0 0c0,-1 0,-1 1,-1l0 0c0,0 0,0 0,0l0 -1c0,0 0,0 1,0 0,0 0,0 0,0l0 0c0,-1 0,-1 0,-1l0 0c0,-1 0,-1 1,-1l0 0c0,0 0,0 0,0l0 -1c0,0 0,0 1,0l0 0c0,-1 0,-1 0,-1l0 0c0,-1 0,-1 1,-1l0 0 0 0 0 -1c0,0 0,0 1,0l0 0 0 -1 0 0c0,-1 0,-1 1,-1l0 0c0,0 0,0 0,0l0 0c0,-1 0,-1 0,-1l1 0 0 -1 0 0c0,0 0,0 0,0l0 0c0,-1 0,-1 1,-1l0 0c0,-1 0,-1 0,-1l0 0c0,0 0,0 0,0 0,0 0,0 1,0l0 0c0,-1 0,-1 0,-1l0 0c0,-1 0,-1 0,-1l0 0c0,0 0,0 1,0l0 0c0,-1 0,-1 0,-1l0 0c0,0 0,0 0,0l1 -1c0,0 0,0 0,0l0 0c0,-1 0,-1 0,-1l0 0c0,0 0,0 0,0l1 -1c0,0 0,0 0,0l0 0c0,-1 0,-1 0,-1l0 0c0,0 0,0 1,0l0 0 0 -1c-1,0 -4,4 -5,5 -1,1 -4,4 -5,5 -1,1 -12,11 -13,11 -2,1 -2,1 -3,2 -1,1 -5,3 -6,4 -1,1 -8,4 -12,7z"/>
   <path class="fil0" d="M48 107l0 0 1 1c0,0 0,0 0,0l0 1c1,0 1,0 1,0l0 1c1,0 0,0 1,0l0 0c0,0 0,0 0,1l0 0c2,-2 6,-4 9,-5 2,-2 5,-3 7,-5 3,-1 6,-4 7,-5 3,-1 7,-6 7,-6 2,-1 7,-6 8,-7l6 -8c4,-3 9,-13 10,-14 1,-2 1,-1 2,-1l0 0 0 -1 0 0 0 -1 1 0 0 -1 0 0 0 -1 0 0 0 -1 0 -1 0 0 0 -1 0 -1 1 -1 0 -1 0 -1 0 -6 0 0c-1,2 -2,3 -3,5 -1,4 -7,14 -9,16 -4,6 -9,13 -14,18 -8,8 -13,12 -22,17 -1,1 -3,2 -4,2 -2,2 -7,4 -9,6z"/>
   <path class="fil0" d="M60 3c0,6 0,8 -2,14 -1,5 -4,12 -7,16 -1,1 -1,2 -2,3 -1,1 -2,2 -3,3 -3,6 -11,11 -17,14 -2,1 -4,2 -6,4l-1 0 0 0 1 1 0 1 0 0 0 1 0 0 0 0 0 1 0 0 1 1 0 0 0 0c2,-3 3,-1 3,-2 1,-1 2,-1 2,-1 0,0 1,-1 1,-1 1,0 0,0 1,0 2,-1 1,0 2,-2 1,0 2,0 2,0 2,-2 2,-1 5,-4 1,-1 5,-3 6,-5 1,-1 2,-3 3,-3l0 0 0 0 1 -1 0 -1 0 0 0 -1c0,0 0,0 0,0l0 -1c0,0 0,0 1,0l0 0 0 -1 0 0c0,-1 0,-1 0,-1l1 -1c0,0 0,0 1,0l0 -1c0,-1 0,-1 0,0 0,-1 0,-1 1,-1l0 0c0,0 0,0 0,0 0,-1 0,0 1,-1l0 0c0,-1 0,0 1,-1l0 0c0,0 0,0 1,0l0 0 0 -1 1 0 0 0 0 -2c0,0 0,1 0,1 1,-1 1,-2 1,-3 0,0 0,1 0,1 1,-1 1,-2 1,-3 0,0 0,1 0,1 1,-1 1,-2 1,-3 0,0 0,1 0,0 1,-1 1,-2 1,-3 0,0 0,1 1,0 0,-1 0,-3 0,-4 0,0 0,1 0,1 1,0 1,-4 1,-5 0,0 0,1 0,1 1,-1 1,-9 1,-12l-4 0 -1 1z"/>
   <path class="fil0" d="M51 111l0 0 0 0c1,0 1,0 1,1 0,0 0,0 0,0l0 1c1,0 1,0 1,0l0 1c1,0 1,0 0,0l1 0 0 1 0 0c4,-3 11,-6 12,-7 1,-1 5,-3 6,-4 1,-1 1,-1 3,-2 1,0 12,-10 13,-11 1,-1 4,-4 5,-5 1,-1 4,-5 5,-5l0 0 0 -1 1 0 0 0c0,-1 0,-1 0,-1l0 -1 1 0 0 0c0,-1 0,-1 0,-1l0 -1 1 0 0 0c0,-1 0,-1 0,-1l0 0c0,0 0,0 0,0l0 0 0 -1 0 0 1 0 0 -1c0,0 0,0 0,0l0 0c0,-1 0,-1 0,-1l0 0c0,0 0,0 0,0l0 0 1 -1 0 0c0,0 0,0 0,0l0 0 0 -1 0 0 1 0 -1 -1c0,0 0,0 1,0l0 0c0,-1 0,-1 0,-1l0 0c0,0 0,0 0,0l0 0 1 -1 -1 0 1 -1 0 0c0,0 0,0 0,0l0 0 0 -1 0 0 1 -1 -1 0 1 0 0 -1 0 0 0 0 0 -1 0 0 1 -1 -1 0 1 -1 0 0 0 0c-1,0 -1,-1 -2,1 -1,1 -6,11 -10,14l-6 8c-1,1 -6,6 -8,7 0,0 -4,5 -7,6 -1,1 -4,4 -7,5 -2,2 -5,3 -7,5 -3,1 -7,3 -9,5z"/>
   <path class="fil0" d="M58 3l-1 0 -1 0 0 0c0,0 0,0 -1,0l0 0c0,5 0,8 -2,13 -3,9 -2,6 -6,14 0,1 -3,4 -4,6 -1,1 -3,4 -5,5l-5 4c-2,2 -9,6 -12,7l0 0 0 1 1 1 0 0 0 1 0 1 0 0 0 1 1 0c2,-2 4,-3 6,-4 6,-3 14,-8 17,-14 1,-1 2,-2 3,-3 1,-1 1,-2 2,-3 3,-4 6,-11 7,-16 2,-6 2,-8 2,-14l-1 0 -1 0 0 0z"/>
   <path class="fil0" d="M54 4l-1 0 0 0 0 0c0,0 0,0 -1,0l0 0 -1 0 0 0 -1 1 0 0c0,11 -4,19 -11,27 -3,4 -6,7 -10,10 -6,5 -7,2 -8,7l0 1 0 1 0 1c3,-1 10,-5 12,-7l5 -4c2,-1 4,-4 5,-5 1,-2 4,-5 4,-6 4,-8 3,-5 6,-14 2,-5 2,-8 2,-13l0 0 -1 1z"/>
   <path class="fil0" d="M49 5l0 0 -1 0 -1 1c0,0 0,0 -1,0l-1 1 0 0c0,1 0,4 -1,3 0,0 0,4 -3,10 -3,7 -3,6 -7,10 0,1 -1,2 -2,2 0,1 -5,5 -6,5 -1,1 -2,3 -5,3l0 0 0 0 0 2 0 1 0 6 0 0c1,-5 2,-2 8,-7 4,-3 7,-6 10,-10 7,-8 11,-16 11,-27l0 0c0,0 0,0 -1,0z"/>
   <path class="fil0" d="M77 56c0,0 0,0 0,0 0,1 0,1 0,1 0,0 0,0 -1,0 0,0 1,0 0,0 0,0 0,0 0,0 0,1 0,1 0,1 0,0 0,0 -1,0 0,0 1,0 0,0 0,0 0,0 0,0l-1 1c0,0 0,0 0,0l0 0 -1 1 0 0c0,0 0,0 -1,0l0 0c0,0 0,0 0,0l0 0 -1 1 0 0c0,0 0,0 0,0l0 0c0,0 0,0 -1,0l0 0 -1 0 -1 0 -1 1 0 0c-2,4 -11,10 -15,13 -3,3 -14,9 -18,10l0 0 0 0 0 1 0 0c1,0 1,0 1,1l0 0c0,0 0,0 0,0l0 1c1,0 1,0 1,0l0 0c0,0 0,0 0,1l0 0c1,0 0,0 0,1l0 0c1,0 1,0 1,0l0 0c1,-2 3,-2 6,-4 5,-2 13,-7 16,-10 5,-4 6,-4 10,-9 1,-1 2,-2 3,-3l4 -5c1,-1 1,-2 2,-3l-1 0 0 0z"/>
   <path class="fil0" d="M31 80l1 1c0,0 0,0 0,0l0 1 0 0 1 1c0,0 0,0 0,0l0 0c0,0 0,0 0,1l0 0c1,0 0,0 0,0l0 0c1,0 1,0 1,1l0 0 0 0c4,-1 15,-7 18,-10 4,-3 13,-9 15,-13 -3,0 -4,0 -6,-1l-1 0c0,1 -6,6 -6,6l-4 3c0,0 -6,4 -7,4 0,0 -8,5 -9,5 -1,0 -2,1 -3,1z"/>
   <path class="fil0" d="M81 44c0,2 0,3 -1,4l0 1 0 1 0 0 0 1 0 0 0 0 0 1c0,0 0,0 -1,0l0 0c2,2 2,-1 3,-2 1,-1 2,-3 3,-5 1,-1 2,-3 2,-4 1,-1 1,-3 1,-3 1,0 3,-6 3,-7 0,-1 0,0 1,-1 0,0 0,-2 0,-3 1,-1 1,-4 1,-4 1,-1 1,0 1,-2 0,-3 1,-4 1,-7l0 0c-1,0 -1,0 -1,-1 0,0 0,0 0,0 0,0 0,0 0,0 -1,0 -1,0 -1,-1l0 0c-1,0 -1,0 -1,0 0,0 0,0 0,-1l-1 0c0,0 0,0 0,-1 0,0 0,0 -1,0 1,5 -2,14 -4,19 0,3 -2,6 -3,8 -1,3 -2,3 -2,7z"/>
   <path class="fil0" d="M44 7l0 0c0,1 0,1 0,1l-2 1c0,0 0,0 -1,0l0 0c0,1 0,1 -1,1l0 0c0,0 0,0 0,0l-1 0 0 1c0,1 0,1 -1,2 0,0 0,0 0,0 0,1 0,2 -1,3 0,0 0,1 -1,2 0,1 0,0 0,1 -1,1 -3,5 -3,5 -1,1 -1,0 -1,0 -1,4 -8,9 -9,10l0 0 -1 0 1 1 -1 0 0 0 0 1 0 1 0 0 0 1 -1 1 0 1c3,0 4,-2 5,-3 1,0 6,-4 6,-5 1,0 2,-1 2,-2 4,-4 4,-3 7,-10 3,-6 3,-10 3,-10 1,1 1,-2 1,-3l0 0c0,0 0,0 -1,0z"/>
   <path class="fil0" d="M78 37l0 0 0 1c1,0 1,0 1,1l0 0 0 1 0 0c1,0 0,0 0,0l0 0c1,0 1,0 1,1l0 0c0,0 0,0 0,0l0 1 0 0 0 1 1 1 -1 0 1 0c0,-4 1,-4 2,-7 1,-2 3,-5 3,-8 2,-5 5,-14 4,-19l0 0c0,0 0,0 0,0l-1 0c0,0 0,0 0,-1l0 0c-1,0 -1,0 -1,0l0 0 0 -1 -2 0 0 0c-1,1 0,3 -1,4l0 -4c0,2 0,8 -1,9l0 -1c0,1 0,3 0,5 -1,2 -1,0 -1,0 0,1 0,3 0,4 -1,1 -1,0 -1,0 0,1 0,2 0,3 -1,1 -1,0 -1,0 0,1 0,3 -1,3 0,0 0,2 0,3 -1,0 -1,-1 -1,-1 0,1 0,2 0,3 -1,0 -1,0 -1,1z"/>
   <path class="fil0" d="M30 76l-1 0 0 0c1,0 1,0 1,1l0 0c0,0 0,0 0,0l0 0c0,0 0,0 0,1l1 2 0 0 0 0c1,0 2,-1 3,-1 1,0 9,-5 9,-5 1,0 7,-4 7,-4l4 -3c0,0 6,-5 6,-6l0 0 0 0c-1,0 -1,0 -1,0l0 0c0,0 0,0 0,0l-1 0c0,0 0,0 0,-1l0 0c0,0 0,0 0,0l0 0c-1,0 -1,0 -1,0l0 0 -1 -1 0 0c0,0 0,0 0,0 -1,0 0,0 -1,0 -1,2 -4,5 -6,6l-10 6c0,0 -1,0 -1,1l-7 3c0,0 0,-1 -1,1z"/>
   <path class="fil0" d="M24 62l0 1 0 0c1,0 0,0 0,1l0 0 1 1 0 0c0,0 0,0 0,0l0 1 0 0 0 0 0 0c1,0 1,0 2,0 1,-1 1,-1 2,-1 2,-1 11,-6 13,-7 1,-1 2,-2 3,-2 1,-2 4,-4 5,-6l-1 -2c0,-1 0,-2 0,-4 -1,0 -2,2 -3,3 -1,2 -5,4 -6,5 -3,3 -3,2 -5,4 0,0 -1,0 -2,0 -1,2 0,1 -2,2 -1,0 0,0 -1,0 0,0 -1,1 -1,1 0,0 -1,0 -2,1 0,1 -1,-1 -3,2z"/>
   <path class="fil0" d="M58 32l0 0 1 0c0,-1 0,-1 1,-1l0 0 1 0 0 0 1 0 1 0 0 0 1 0c1,-1 4,-9 5,-13 0,-3 1,-6 1,-8 1,-2 0,-6 2,-7l0 0 -1 0 -2 -1 -4 0c0,3 0,11 -1,12 0,0 0,-1 0,-1 0,1 0,5 -1,5 0,0 0,-1 0,-1 0,1 0,3 0,4 -1,1 -1,0 -1,0 0,1 0,2 -1,3 0,1 0,0 0,0 0,1 0,2 -1,3 0,0 0,-1 0,-1 0,1 0,2 -1,3 0,0 0,-1 0,-1 0,1 0,2 -1,3 0,0 0,-1 0,-1l0 2z"/>
   <path class="fil0" d="M28 71l0 1 -1 0c1,0 1,0 1,0l0 0c0,0 0,0 0,1l0 0c0,0 0,0 0,0l0 1 1 0 -1 0c1,0 1,0 1,1l0 0c0,0 0,0 0,0l0 1 1 0c1,-2 1,-1 1,-1l7 -3c0,-1 1,-1 1,-1l10 -6c2,-1 5,-4 6,-6l0 -1c0,0 0,0 0,0 -1,0 -1,0 -1,0 0,0 0,0 0,0 0,0 0,0 0,-1 0,0 0,0 0,0 -1,0 -1,0 -1,0 0,0 0,0 0,0 0,0 0,0 0,-1 0,0 0,0 0,0l-1 0c0,0 0,0 0,-1l0 0 -5 5c-1,0 0,0 -1,0 0,0 -3,2 -3,2 0,1 -1,1 -1,1 0,0 -2,1 -2,2 0,0 -1,0 -2,0 0,1 0,1 -1,1 -1,1 0,1 -1,1 -1,0 0,0 -1,0 -1,0 -1,1 -2,1 0,0 -1,1 -1,1 0,0 -1,0 -2,1 -1,1 -2,-1 -2,1z"/>
   <path class="fil0" d="M74 33l1 1 0 0c1,1 1,0 1,1 0,0 0,0 0,0 0,0 0,0 0,0 1,0 0,0 0,1 1,-1 1,-1 1,0l0 1 1 0c0,-1 0,-1 1,-1 0,-1 0,-2 0,-3 0,0 0,1 1,1 0,-1 0,-3 0,-3 1,0 1,-2 1,-3 0,0 0,1 1,0 0,-1 0,-2 0,-3 0,0 0,1 1,0 0,-1 0,-3 0,-4 0,0 0,2 1,0 0,-2 0,-4 0,-5l0 1c1,-1 1,-7 1,-9l0 4c1,-1 0,-3 1,-4l0 -1 0 0c-1,0 -1,0 -1,0l0 0c0,0 0,0 0,0l-1 -1c-1,0 -1,0 -1,0l0 0 0 0 -1 -1 -1 0 -1 6 0 -4c0,1 0,8 -1,10l0 -2c0,1 0,3 0,5 0,0 -1,1 -1,1 0,0 0,-1 0,-1 0,1 0,2 0,4 -1,1 -1,0 -1,0 0,1 0,2 0,3 -1,1 -1,0 -1,0 0,1 0,2 0,3 -1,0 -1,0 -1,0 0,0 -1,3 -1,3z"/>
   <path class="fil0" d="M70 31l0 0 0 0c1,0 0,0 0,1l2 0 0 0 1 0 0 1 0 0c1,0 1,0 1,0l0 0c0,0 1,-3 1,-3 0,0 0,0 1,0 0,-1 0,-2 0,-3 0,0 0,1 1,0 0,-1 0,-2 0,-3 0,0 0,1 1,0 0,-2 0,-3 0,-4 0,0 0,1 0,1 0,0 1,-1 1,-1 0,-2 0,-4 0,-5l0 2c1,-2 1,-9 1,-10l0 4 1 -6 0 0 0 0c-1,0 -1,0 -1,0l-1 0 0 -1 0 0 -1 0 0 0c-1,0 -1,0 -1,0l0 0 0 0c-2,1 -1,5 -2,6 0,0 0,-1 0,-1 0,1 0,6 -1,7 0,0 0,-1 0,-1 0,1 0,4 -1,5l0 0c0,1 0,2 -1,4 0,0 0,2 -1,3l0 -1c0,1 0,2 -1,3 -1,1 0,-2 0,2z"/>
   <path class="fil0" d="M64 31l3 0 0 0 1 0 1 0 0 0 1 0c0,-4 -1,-1 0,-2 1,-1 1,-2 1,-3l0 1c1,-1 1,-3 1,-3 1,-2 1,-3 1,-4l0 0c1,-1 1,-4 1,-5 0,0 0,1 0,1 1,-1 1,-6 1,-7 0,0 0,1 0,1 1,-1 0,-5 2,-6l0 0 -1 0 -1 -1 0 0c-1,0 -1,0 -1,0l0 0 -1 0 -1 0 0 0c-2,1 -1,5 -2,7 0,2 -1,5 -1,8 -1,4 -4,12 -5,13z"/>
   <path class="fil0" d="M25 66l0 1 0 0 1 0 0 1 0 0 0 0c0,0 0,0 0,1l0 0 0 0 0 0 1 1 0 0 0 1 0 0 0 0 0 0 1 0c0,-2 1,0 2,-1 1,-1 2,-1 2,-1 0,0 1,-1 1,-1 1,0 1,-1 2,-1 1,0 0,0 1,0 1,0 0,0 1,-1 1,0 1,0 1,-1 1,0 2,0 2,0 0,-1 2,-2 2,-2 0,0 1,0 1,-1 0,0 3,-2 3,-2 1,0 0,0 1,0l5 -5 0 0c-1,0 -1,0 -1,-1l0 0c0,0 0,0 0,0l0 -1c-1,0 -1,0 -1,-1l0 0c0,0 0,0 0,0l0 -1 0 0 0 0 0 -1c-1,2 -4,4 -5,6 -1,0 -2,1 -3,2 -2,1 -11,6 -13,7 -1,0 -1,0 -2,1 -1,0 -1,0 -2,0z"/>
   <path class="fil0" d="M38 11c0,1 0,1 0,1 0,0 0,0 -1,0l0 0 0 0c0,1 0,1 -1,1 0,0 0,0 0,0l0 0c0,1 0,1 -1,1l-3 3 0 0c0,1 0,1 -1,1 0,0 1,0 0,0l0 1c-1,0 0,0 -1,0 0,0 0,0 0,0l0 1c-1,0 0,0 -1,0l0 1 0 0c0,0 0,0 -1,0l0 1c0,0 0,0 0,0l0 1c0,0 0,0 -1,0l0 0c0,0 1,0 0,0l0 1c0,0 0,0 0,0l-1 1 0 1 0 0c0,0 0,0 -1,0l0 0c0,1 1,1 0,1l0 0 0 1 0 0 -1 1 0 0c0,0 1,0 0,0l0 0 0 1 0 1 -1 0 0 1 0 0 0 1 0 0 0 1c1,-1 8,-6 9,-10 0,0 0,1 1,0 0,0 2,-4 3,-5 0,-1 0,0 0,-1 1,-1 1,-2 1,-2 1,-1 1,-2 1,-3 0,0 0,0 0,0 1,-1 1,-1 1,-2l-1 0z"/>
   <path class="fil0" d="M80 48c1,-1 1,-2 1,-4l-1 0 0 4z"/>
   <path class="fil0" d="M49 48l0 -4 0 0c0,2 0,3 0,4z"/>
   <polygon class="fil0" points="21,50 21,49 21,49 "/>
   <path class="fil0" d="M24 63l0 -1 0 0c0,1 0,1 0,1z"/>
   <path class="fil0" d="M29 76l1 0 -1 0c0,0 0,0 0,0z"/>
   <path class="fil0" d="M34 85l0 0 0 0c0,0 0,0 0,0z"/>
   <path class="fil0" d="M104 69c-1,0 -1,0 -1,0 1,0 1,0 1,0z"/>
   <path class="fil0" d="M30 78c0,-1 0,-1 0,-1 0,1 0,1 0,1z"/>
   <path class="fil0" d="M79 40c0,0 1,0 0,0 0,0 0,0 0,0z"/>
   <path class="fil0" d="M51 53c0,-1 0,-1 -1,-1 0,1 0,1 1,1z"/>
   <path class="fil0" d="M84 6c0,0 0,0 -1,0 0,0 0,0 1,0z"/>
   <path class="fil0" d="M51 40c-1,0 -1,0 -1,0 1,0 1,0 1,0z"/>
   <path class="fil0" d="M47 6c-1,0 -1,0 -1,0 1,0 1,0 1,0z"/>
   <path class="fil0" d="M100 77c0,0 0,0 0,1 0,0 0,0 0,-1z"/>
   <path class="fil0" d="M99 79c0,0 0,0 0,1 0,0 0,0 0,-1z"/>
   <path class="fil0" d="M104 25c-1,-1 0,-1 -1,-1 0,1 0,1 1,1z"/>
   <path class="fil0" d="M104 26c0,0 1,0 0,0 0,0 0,0 0,0z"/>
   <path class="fil0" d="M28 72c0,0 0,0 -1,0 0,0 0,0 1,0z"/>
   <path class="fil0" d="M33 84c0,-1 0,-1 0,-1 0,1 0,1 0,1z"/>
   <path class="fil0" d="M78 37l0 0 -1 0c0,0 0,0 1,0z"/>
   <path class="fil0" d="M26 26c-1,0 -1,0 -1,0 1,0 1,0 1,0z"/>
   <path class="fil0" d="M37 90c0,0 0,0 -1,0 0,0 0,0 1,0z"/>
   <path class="fil0" d="M35 87c0,0 0,0 0,0 0,0 0,0 0,0z"/>
   <path class="fil0" d="M96 84c0,0 0,0 0,1 0,0 0,0 0,-1z"/>
   <path class="fil0" d="M61 61c0,0 0,0 -1,0l0 0 1 0z"/>
   <path class="fil0" d="M77 4c0,-1 0,0 0,0l0 0 0 0z"/>
   <path class="fil0" d="M97 83c0,0 0,0 0,0 0,0 0,0 0,0z"/>
   <path class="fil0" d="M33 83c0,0 0,0 0,0 0,0 0,0 0,0z"/>
   <path class="fil0" d="M45 7c-1,0 -1,0 -1,0 1,0 1,0 1,0z"/>
   <path class="fil0" d="M86 7c0,0 0,0 -1,0 0,0 0,0 1,0z"/>
   <path class="fil0" d="M39 93c0,0 0,0 -1,0 0,0 0,0 1,0z"/>
   <path class="fil0" d="M78 54c0,0 0,0 0,1 1,0 0,0 0,-1z"/>
   <path class="fil0" d="M25 26c0,0 0,0 0,1 1,0 0,0 0,-1z"/>
   <path class="fil0" d="M91 93c-1,0 -1,0 -1,1 1,0 1,0 1,-1z"/>
   <path class="fil0" d="M105 27c0,-1 0,-1 -1,-1 0,1 0,1 1,1z"/>
   <path class="fil0" d="M95 86c0,0 0,0 0,1 0,0 0,0 0,-1z"/>
   <path class="fil0" d="M29 75c0,-1 0,-1 -1,-1 0,1 0,1 1,1z"/>
   <path class="fil0" d="M101 75c0,0 0,0 0,1 0,0 0,0 0,-1z"/>
   <path class="fil0" d="M38 92c0,-1 0,-1 -1,-1 0,1 0,1 1,1z"/>
   <path class="fil0" d="M52 56c0,-1 1,-1 0,-1 0,1 0,1 0,1z"/>
   <path class="fil0" d="M92 91c0,0 0,0 0,0 1,0 0,0 0,0z"/>
   <path class="fil0" d="M85 7c0,0 0,0 0,0 0,0 0,0 0,0z"/>
   <path class="fil0" d="M36 89c0,-1 0,-1 0,-1 0,1 0,1 0,1z"/>
   <path class="fil0" d="M102 72c0,0 0,0 0,0 1,0 0,0 0,0z"/>
   <path class="fil0" d="M36 88c0,0 0,0 -1,0 0,0 0,0 1,0z"/>
   <path class="fil0" d="M74 33c0,0 0,0 -1,0 0,0 0,0 1,0z"/>
   <path class="fil0" d="M58 60c0,0 0,0 -1,0 0,0 0,0 1,0z"/>
   <path class="fil0" d="M48 107l0 0 0 0c0,0 0,0 0,0z"/>
   <path class="fil0" d="M103 23c0,0 0,0 -1,0 0,0 0,0 1,0z"/>
   <path class="fil0" d="M27 23c0,0 0,0 0,0 1,0 0,0 0,0z"/>
   <path class="fil0" d="M45 103l0 -1 0 0c0,1 0,1 0,1z"/>
   <path class="fil0" d="M91 92c0,0 0,0 0,1 1,0 0,0 0,-1z"/>
   <path class="fil0" d="M58 60c0,0 0,0 0,0 0,0 0,0 0,0z"/>
   <path class="fil0" d="M52 55c0,-1 0,-1 -1,-1 0,1 0,1 1,1z"/>
   <path class="fil0" d="M94 87c0,0 0,0 0,1 1,0 0,0 0,-1z"/>
   <path class="fil0" d="M78 56l0 -1c-1,0 -1,0 -1,1l1 0z"/>
   <path class="fil0" d="M73 60c-1,0 -1,0 -1,0 1,0 1,0 1,0z"/>
   <path class="fil0" d="M90 95c-1,0 -1,0 -1,0 1,0 1,0 1,0z"/>
   <path class="fil0" d="M79 39c0,-1 0,-1 -1,-1 0,1 0,1 1,1z"/>
   <path class="fil0" d="M42 9c-1,0 -1,0 -1,0 1,0 1,0 1,0z"/>
   <path class="fil0" d="M101 20c0,0 0,0 -1,0 0,0 0,0 1,0z"/>
   <path class="fil0" d="M89 96c-1,0 -1,0 -1,1 1,0 1,0 1,-1z"/>
   <path class="fil0" d="M89 9c0,0 0,0 -1,0 0,0 0,0 1,0z"/>
   <path class="fil0" d="M30 20c-1,0 -1,0 -1,0 1,0 0,0 1,0z"/>
   <path class="fil0" d="M43 100c0,0 0,0 0,0 0,0 0,0 0,0z"/>
   <path class="fil0" d="M87 99c-1,0 -1,0 -1,1 1,0 1,0 1,-1z"/>
   <path class="fil0" d="M72 60c0,0 0,0 0,0 0,0 0,0 0,0z"/>
   <path class="fil0" d="M39 94c0,0 1,0 0,0 0,0 0,0 0,0z"/>
   <path class="fil0" d="M51 38c0,0 0,0 0,1 1,0 0,0 0,-1z"/>
   <path class="fil0" d="M81 5c0,0 0,0 -1,0 0,0 0,0 1,0z"/>
   <path class="fil0" d="M88 98c-1,0 -1,0 -1,0 1,0 1,0 1,0z"/>
   <polygon class="fil0" points="60,3 61,2 59,3 "/>
   <path class="fil0" d="M40 95c0,-1 0,-1 -1,-1 0,1 0,1 1,1z"/>
   <path class="fil0" d="M46 104c0,0 0,0 0,0 0,0 0,0 0,0z"/>
   <path class="fil0" d="M38 93c0,-1 1,-1 0,-1 0,1 0,1 0,1z"/>
   <path class="fil0" d="M57 33c-1,0 -1,0 -1,0 1,0 1,0 1,0z"/>
   <path class="fil0" d="M49 108c0,0 0,0 0,0 0,0 0,0 0,0z"/>
   <path class="fil0" d="M83 105c0,0 0,0 0,0 0,0 0,0 0,0z"/>
   <path class="fil0" d="M40 10c0,0 0,0 0,0 0,0 0,0 0,0z"/>
   <path class="fil0" d="M76 115c-1,0 -1,0 -1,1 1,0 1,0 1,-1z"/>
   <path class="fil0" d="M56 118c0,-1 0,-1 0,-1 0,1 0,1 0,1z"/>
   <path class="fil0" d="M34 85c0,-1 0,-1 -1,-1 0,1 0,1 1,1z"/>
   <path class="fil0" d="M79 54c-1,0 -1,0 -1,0 1,0 1,0 1,0z"/>
   <path class="fil0" d="M79 52c0,0 0,0 0,1 1,0 0,0 0,-1z"/>
   <path class="fil0" d="M79 111c-1,0 -1,0 -1,1 1,0 0,0 1,-1z"/>
   <path class="fil0" d="M81 107c0,0 0,0 0,1 1,0 0,0 0,-1z"/>
   <path class="fil0" d="M47 105c0,0 0,0 0,0 0,0 0,0 0,0z"/>
   <path class="fil0" d="M106 29c0,0 0,0 -1,0 0,0 0,0 1,0z"/>
   <path class="fil0" d="M93 89c0,0 0,0 0,1 0,0 0,0 0,-1z"/>
   <path class="fil0" d="M90 10c0,0 0,0 0,0 0,0 0,0 0,0z"/>
   <path class="fil0" d="M56 59c0,0 0,0 0,0 0,0 0,0 0,0z"/>
   <path class="fil0" d="M42 99c0,-1 0,-1 0,-1 0,1 0,1 0,1z"/>
   <path class="fil0" d="M24 29c0,0 0,0 0,0 1,0 0,0 0,0z"/>
   <path class="fil0" d="M84 103c0,0 0,0 0,1 0,0 0,0 0,-1z"/>
   <path class="fil0" d="M78 113c-1,0 -1,-1 -1,0 1,0 1,0 1,0z"/>
   <path class="fil0" d="M91 11c0,-1 0,0 0,-1 0,1 0,1 0,1z"/>
   <path class="fil0" d="M51 54c0,0 1,0 0,0 0,0 0,0 0,0z"/>
   <path class="fil0" d="M28 22c0,0 0,0 0,0 0,0 0,0 0,0z"/>
   <path class="fil0" d="M75 116c0,0 0,0 0,1 0,0 0,0 0,-1z"/>
   <path class="fil0" d="M35 87c0,-1 0,-1 -1,-1 0,1 0,1 1,1z"/>
   <path class="fil0" d="M41 96c0,0 0,0 -1,0 0,0 0,0 1,0z"/>
   <path class="fil0" d="M53 113c0,0 0,0 -1,0 0,0 0,0 1,0z"/>
   <path class="fil0" d="M74 59c0,0 0,0 0,0 0,0 0,0 0,0z"/>
   <path class="fil0" d="M50 109c0,0 0,0 -1,0 0,0 0,0 1,0z"/>
   <path class="fil0" d="M53 37c-1,0 -1,0 -1,0 1,0 0,0 1,0z"/>
   <polygon class="fil0" points="82,5 81,5 81,5 "/>
   <path class="fil0" d="M54 115l0 0 0 0c0,0 0,0 0,0z"/>
   <path class="fil0" d="M98 82c-1,0 -1,0 -1,0 1,0 1,0 1,0z"/>
   <path class="fil0" d="M102 22c0,0 0,0 0,0 0,0 0,0 0,0z"/>
   <path class="fil0" d="M30 77c0,0 0,0 0,0 0,0 0,0 0,0z"/>
   <path class="fil0" d="M85 102c0,0 0,0 0,0 0,0 0,0 0,0z"/>
   <path class="fil0" d="M30 77c0,-1 0,-1 -1,-1 0,1 0,1 1,1z"/>
   <path class="fil0" d="M95 86c0,0 0,0 0,0 1,0 0,0 0,0z"/>
   <path class="fil0" d="M28 23c-1,0 -1,-1 -1,0 1,0 1,0 1,0z"/>
   <path class="fil0" d="M77 36c0,-1 0,-1 -1,0 0,0 0,0 1,0z"/>
   <path class="fil0" d="M102 23c0,-1 1,0 0,0 0,0 0,0 0,0z"/>
   <path class="fil0" d="M86 8c0,-1 0,-1 0,-1l0 1 0 0z"/>
   <path class="fil0" d="M42 98c0,-1 0,-1 -1,-1 0,1 0,1 1,1z"/>
   <path class="fil0" d="M40 96c0,-1 0,-1 0,-1 0,1 0,1 0,1z"/>
   <path class="fil0" d="M96 84c0,0 0,0 0,0 1,0 0,0 0,0z"/>
   <path class="fil0" d="M80 41c0,0 0,0 0,0 0,0 0,0 0,0z"/>
   <path class="fil0" d="M51 111l0 0 0 0c0,0 0,0 0,0z"/>
   <path class="fil0" d="M51 110c-1,0 0,0 -1,0 0,0 0,0 1,0z"/>
   <path class="fil0" d="M77 114c-1,0 -1,0 -1,1 1,0 0,0 1,-1z"/>
   <path class="fil0" d="M38 92c0,0 0,0 0,0 0,0 0,0 0,0z"/>
   <path class="fil0" d="M78 4c0,0 0,0 -1,0 0,0 0,0 1,0z"/>
   <path class="fil0" d="M41 97c0,0 0,0 0,0 0,0 0,0 0,0z"/>
   <path class="fil0" d="M74 117c0,0 0,0 0,1 0,0 0,0 0,-1z"/>
   <path class="fil0" d="M80 110c-1,0 -1,0 -1,0 1,0 1,0 1,0z"/>
   <path class="fil0" d="M86 101c0,0 0,0 0,0 0,0 0,0 0,0z"/>
   <path class="fil0" d="M94 88c0,0 0,0 0,1 0,0 0,0 0,-1z"/>
   <path class="fil0" d="M85 102c-1,0 -1,0 -1,1 1,0 1,0 1,-1z"/>
   <path class="fil0" d="M87 99c0,0 0,0 0,0 0,0 0,0 0,0z"/>
   <path class="fil0" d="M53 36c0,-1 0,-1 0,0 1,0 1,0 0,0z"/>
   <path class="fil0" d="M28 73c0,-1 0,-1 0,-1 0,1 0,1 0,1z"/>
   <path class="fil0" d="M96 85c0,0 0,0 0,0 0,0 0,0 0,0z"/>
   <path class="fil0" d="M93 12c0,-1 0,-1 -1,0 0,0 0,0 1,0z"/>
   <path class="fil0" d="M93 89c0,0 0,0 0,0 1,0 1,0 0,0z"/>
   <path class="fil0" d="M44 102c0,-1 0,-1 0,-1 0,1 0,1 0,1z"/>
   <path class="fil0" d="M93 90c-1,0 -1,0 -1,1 1,0 1,0 1,-1z"/>
   <path class="fil0" d="M80 109c0,0 0,0 0,0 1,0 0,0 0,0z"/>
   <polygon class="fil0" points="28,72 28,71 27,71 "/>
   <path class="fil0" d="M53 114c1,0 1,0 0,0 0,0 0,0 0,0z"/>
   <path class="fil0" d="M97 82c0,0 0,0 0,1 1,0 0,0 0,-1z"/>
   <path class="fil0" d="M82 106c0,0 0,0 0,1 0,0 0,0 0,-1z"/>
   <path class="fil0" d="M27 24c0,0 0,0 0,0 0,0 0,0 0,0z"/>
   <path class="fil0" d="M33 84c0,0 1,0 0,0 0,0 0,0 0,0z"/>
   <path class="fil0" d="M55 117c0,-1 1,-1 0,-1 0,1 0,1 0,1z"/>
   <path class="fil0" d="M94 13c0,-1 0,0 -1,-1 0,1 0,1 1,1z"/>
   <path class="fil0" d="M76 35c0,-1 0,0 -1,-1 0,1 0,1 1,1z"/>
   <path class="fil0" d="M38 12c-1,-1 -1,-1 -1,0 1,0 1,0 1,0z"/>
   <path class="fil0" d="M55 115c-1,0 0,0 -1,0 0,0 0,0 1,0z"/>
   <path class="fil0" d="M52 112c0,-1 0,-1 -1,-1 0,1 0,1 1,1z"/>
   <path class="fil0" d="M67 125c0,0 0,0 0,1 1,0 1,0 0,-1z"/>
   <polygon class="fil0" points="109,43 109,42 109,43 "/>
   <path class="fil0" d="M37 12c-1,1 -1,0 -1,1 1,0 1,0 1,-1z"/>
   <path class="fil0" d="M30 19c0,0 0,0 0,0 0,0 0,0 0,0z"/>
   <path class="fil0" d="M62 124c0,0 0,0 -1,0 0,0 0,0 1,0z"/>
   <path class="fil0" d="M58 120c0,0 0,0 0,0 0,0 0,0 0,0z"/>
   <path class="fil0" d="M36 90c0,-1 1,-1 0,-1 0,1 0,1 0,1z"/>
   <path class="fil0" d="M100 19c0,0 0,0 0,0 0,0 0,0 0,0z"/>
   <path class="fil0" d="M66 127c-1,0 -1,0 -1,1 1,0 0,0 1,-1z"/>
   <path class="fil0" d="M48 106c0,0 0,0 -1,0 0,0 0,0 1,0z"/>
   <path class="fil0" d="M57 119c0,-1 0,-1 0,0 0,0 0,0 0,0z"/>
   <path class="fil0" d="M59 121c0,0 0,0 0,0 0,0 0,0 0,0z"/>
   <path class="fil0" d="M70 122c0,0 0,0 0,1 0,0 0,0 0,-1z"/>
   <path class="fil0" d="M86 100c0,0 0,0 0,1 0,0 0,0 0,-1z"/>
   <path class="fil0" d="M53 56c0,0 0,0 0,0 0,0 0,0 0,0z"/>
   <path class="fil0" d="M37 91c0,-1 0,-1 0,-1 0,1 0,1 0,1z"/>
   <path class="fil0" d="M44 102c0,-1 1,-1 0,0 0,0 0,0 0,0z"/>
   <path class="fil0" d="M64 127c0,-1 0,-1 -1,-1 0,1 0,1 1,1z"/>
   <path class="fil0" d="M55 34c-1,1 -1,0 -1,1 1,0 1,0 1,-1z"/>
   <path class="fil0" d="M101 75c0,0 0,0 0,0 0,0 0,0 0,0z"/>
   <path class="fil0" d="M98 81l0 0 0 1c0,0 0,0 0,-1z"/>
   <path class="fil0" d="M58 120c0,-1 0,-1 0,-1 0,1 0,1 0,1z"/>
   <path class="fil0" d="M74 118c-1,0 -1,0 -1,0 1,0 1,0 1,0z"/>
   <path class="fil0" d="M79 110c0,0 0,0 0,1 0,0 0,0 0,-1z"/>
   <path class="fil0" d="M55 58c0,0 0,0 0,0 0,0 0,0 0,0z"/>
   <path class="fil0" d="M56 33c-1,1 -1,0 -1,1 1,0 1,0 1,-1z"/>
   <path class="fil0" d="M94 89c-1,0 -1,0 -1,0 1,0 1,0 1,0z"/>
   <path class="fil0" d="M61 123c0,0 0,0 0,0 0,0 0,0 0,0z"/>
   <path class="fil0" d="M84 104c-1,0 -1,0 -1,0 1,0 1,0 1,0z"/>
   <path class="fil0" d="M44 101c0,0 0,0 0,0 0,0 0,0 0,0z"/>
   <path class="fil0" d="M43 99c0,0 0,0 -1,0 0,0 0,0 1,0z"/>
   <path class="fil0" d="M64 127c0,-1 0,-1 0,0 0,0 0,0 0,0z"/>
   <path class="fil0" d="M46 104c0,-1 0,-1 -1,-1 0,1 0,1 1,1z"/>
   <path class="fil0" d="M55 116c0,0 0,0 0,0 0,0 0,0 0,0z"/>
   <path class="fil0" d="M57 119c0,-1 0,-1 0,-1 0,1 0,1 0,1z"/>
   <path class="fil0" d="M80 109c0,0 0,0 0,0 0,0 0,0 0,0z"/>
   <path class="fil0" d="M29 21c-1,0 -1,0 -1,0 1,0 1,0 1,0z"/>
   <path class="fil0" d="M73 119c-1,0 -1,0 -1,1 1,0 1,0 1,-1z"/>
   <path class="fil0" d="M77 114c0,-1 0,-1 0,0 0,0 0,0 0,0z"/>
   <path class="fil0" d="M101 21c0,0 1,0 0,0 0,0 0,0 0,0z"/>
   <path class="fil0" d="M95 14c0,-1 0,-1 -1,-1 0,1 0,1 1,1z"/>
   <path class="fil0" d="M41 9c-1,0 -1,0 -1,1 1,0 1,0 1,-1z"/>
   <path class="fil0" d="M51 111c0,-1 0,-1 0,-1 0,1 0,1 0,1z"/>
   <path class="fil0" d="M59 121c0,0 0,0 0,0 0,0 0,0 0,0z"/>
   <path class="fil0" d="M77 56c0,0 0,0 0,0 0,0 0,0 0,0z"/>
   <path class="fil0" d="M86 101c-1,0 -1,0 -1,0 1,0 1,0 1,0z"/>
   <path class="fil0" d="M75 58c0,0 0,0 0,0 0,0 0,0 0,0z"/>
   <polygon class="fil0" points="72,3 72,3 72,3 "/>
   <path class="fil0" d="M31 18c0,0 0,-1 0,0 1,0 0,0 0,0z"/>
   <path class="fil0" d="M69 123c0,0 0,0 0,1 0,0 0,0 0,-1z"/>
   <path class="fil0" d="M52 112c0,0 0,0 0,0 0,0 0,0 0,0z"/>
   <path class="fil0" d="M73 119c0,0 0,-1 0,0 0,0 0,0 0,0z"/>
   <path class="fil0" d="M44 7c0,0 0,0 0,1 0,0 0,0 0,-1z"/>
   <path class="fil0" d="M31 19c-1,0 -1,0 -1,0 1,0 0,0 1,0z"/>
   <path class="fil0" d="M89 10c0,-1 1,-1 0,-1 0,1 0,1 0,1z"/>
   <path class="fil0" d="M100 19c0,0 0,0 -1,0 0,0 0,0 1,0z"/>
   <path class="fil0" d="M36 13c-1,0 -1,0 -1,1 1,0 1,0 1,-1z"/>
   <path class="fil0" d="M78 55c0,0 0,0 0,0 0,0 0,0 0,0z"/>
   <path class="fil0" d="M45 103c0,0 1,0 0,0 0,0 0,0 0,0z"/>
   <path class="fil0" d="M81 108c-1,0 -1,0 -1,1 1,0 1,0 1,-1z"/>
   <path class="fil0" d="M92 12c0,-1 0,-1 0,-1 0,1 0,1 0,1z"/>
   <path class="fil0" d="M76 35c0,0 0,0 0,0 0,0 0,0 0,0z"/>
   <path class="fil0" d="M53 57c0,-1 0,-1 0,-1 0,1 0,1 0,1z"/>
   <path class="fil0" d="M38 11c0,0 0,0 0,1 0,0 0,0 0,-1z"/>
   <polygon class="fil0" points="22,57 23,57 22,57 "/>
   <path class="fil0" d="M54 35c0,0 0,0 0,0 0,0 0,0 0,0z"/>
   <path class="fil0" d="M53 57c0,-1 1,-1 0,0 0,0 0,0 0,0z"/>
   <path class="fil0" d="M61 31l-1 0c1,0 1,0 1,0z"/>
   <path class="fil0" d="M61 123c0,0 0,0 -1,0 0,0 0,0 1,0z"/>
   <path class="fil0" d="M77 56c0,0 0,0 0,1 0,0 0,0 0,-1z"/>
   <path class="fil0" d="M68 125c0,0 0,-1 0,0 0,0 0,0 0,0z"/>
   <path class="fil0" d="M77 57c-1,-1 -1,-1 -1,0 1,0 1,0 1,0z"/>
   <path class="fil0" d="M68 125c0,0 0,0 0,0 0,0 0,0 0,0z"/>
   <path class="fil0" d="M70 122c0,0 0,0 0,0 1,0 0,0 0,0z"/>
   <path class="fil0" d="M60 61l-1 0c0,0 0,0 1,0z"/>
   <path class="fil0" d="M76 36c0,-1 1,-1 0,-1 0,1 0,1 0,1z"/>
   <path class="fil0" d="M54 57c0,0 0,0 -1,0 0,0 0,0 1,0z"/>
   <path class="fil0" d="M54 58c0,-1 0,-1 0,-1 0,1 0,1 0,1z"/>
   <path class="fil0" d="M55 58c0,0 0,0 -1,0 0,0 0,0 1,0z"/>
   <path class="fil0" d="M62 125c0,-1 0,-1 0,-1 0,1 0,1 0,1z"/>
   <path class="fil0" d="M69 124c0,0 0,0 0,0 0,0 0,0 0,0z"/>
   <path class="fil0" d="M23 33c0,0 0,0 0,0l0 0z"/>
   <path class="fil0" d="M54 57c0,0 0,0 0,0 0,0 0,0 0,0z"/>
   <path class="fil0" d="M71 61l-1 0c1,0 1,0 1,0z"/>
   <path class="fil0" d="M68 125c-1,0 -1,0 -1,0 1,0 1,0 1,0z"/>
   <path class="fil0" d="M94 13c0,0 0,0 0,0 0,0 0,0 0,0z"/>
   <path class="fil0" d="M75 58c0,0 0,0 0,0 1,0 0,0 0,0z"/>
   <path class="fil0" d="M76 57c0,0 0,0 0,1 0,0 0,0 0,-1z"/>
   <polygon class="fil0" points="70,31 70,31 69,31 "/>
   <path class="fil0" d="M76 57c0,0 0,0 0,0 1,0 0,0 0,0z"/>
   <path class="fil0" d="M54 58c0,-1 1,0 0,0 0,0 0,0 0,0z"/>
   <path class="fil0" d="M76 57c0,0 0,0 0,0 0,0 0,0 0,0z"/>
   <path class="fil0" d="M68 124c0,0 0,0 0,1 1,0 0,0 0,-1z"/>
   <path class="fil0" d="M94 13c0,0 0,0 0,0 0,0 0,0 0,0z"/>
   <path class="fil0" d="M76 58c-1,0 -1,-1 -1,0 1,0 1,0 1,0z"/>
   <path class="fil0" d="M26 69l0 0c0,0 0,0 0,0z"/>
   <path class="fil0" d="M32 17c-1,0 -1,0 -1,1 1,0 1,0 1,-1z"/>
   <path class="fil0" d="M80 41c0,-1 0,-1 -1,-1l1 1z"/>
   <path class="fil0" d="M80 52l-1 0c1,0 1,0 1,0z"/>
   <path class="fil0" d="M25 65c0,0 0,0 0,0l0 0z"/>
   <path class="fil0" d="M105 66l-1 1c1,0 1,0 1,-1z"/>
   <path class="fil0" d="M50 52l0 0c0,0 0,0 0,0z"/>
   <path class="fil0" d="M79 40l0 -1c0,1 0,1 0,1z"/>
   <path class="fil0" d="M83 6c0,0 0,0 0,0l0 0z"/>
   <path class="fil0" d="M51 39l0 1c0,0 0,0 0,-1z"/>
   <path class="fil0" d="M28 73c0,0 0,0 0,0l0 0z"/>
   <path class="fil0" d="M32 81c0,0 0,0 0,0l0 0z"/>
   <path class="fil0" d="M56 3l-1 0c1,0 1,0 1,0z"/>
   <path class="fil0" d="M100 78l-1 0c1,0 1,0 1,0z"/>
   <path class="fil0" d="M34 86l0 -1c0,1 0,1 0,1z"/>
   <path class="fil0" d="M24 64c0,-1 1,-1 0,-1l0 1z"/>
   <path class="fil0" d="M105 65l0 1c0,0 0,0 0,-1z"/>
   <path class="fil0" d="M59 61l0 0c0,0 0,0 0,0z"/>
   <path class="fil0" d="M71 61l0 0c0,0 0,0 0,0z"/>
   <path class="fil0" d="M75 3l-1 0c0,0 0,0 1,0z"/>
   <path class="fil0" d="M25 27c0,0 0,0 0,1l0 -1z"/>
   <path class="fil0" d="M105 28c0,-1 0,-1 0,-1l0 1z"/>
   <path class="fil0" d="M45 7c0,0 0,0 0,0l0 0z"/>
   <path class="fil0" d="M50 51c0,-1 0,-1 0,-1l0 1z"/>
   <path class="fil0" d="M102 73c0,0 0,0 0,0l0 0z"/>
   <path class="fil0" d="M104 68c0,0 0,0 0,0l0 0z"/>
   <path class="fil0" d="M70 32c0,-1 1,-1 0,-1l0 1z"/>
   <path class="fil0" d="M26 68l0 0c0,0 0,0 0,0z"/>
   <path class="fil0" d="M39 10c0,1 0,0 0,1l0 -1z"/>
   <path class="fil0" d="M26 25c0,0 0,0 0,1l0 -1z"/>
   <path class="fil0" d="M99 80l-1 0c1,0 1,0 1,0z"/>
   <path class="fil0" d="M104 26c0,-1 0,-1 0,-1l0 1z"/>
   <path class="fil0" d="M62 31l-1 0c1,0 1,0 1,0z"/>
   <path class="fil0" d="M50 5l-1 0c1,0 1,0 1,0z"/>
   <path class="fil0" d="M69 31l-1 0c0,0 0,0 1,0z"/>
   <path class="fil0" d="M101 74l0 1c1,0 0,0 0,-1z"/>
   <path class="fil0" d="M29 75c0,0 0,0 0,0l0 0z"/>
   <path class="fil0" d="M104 68c0,0 0,0 0,1l0 -1z"/>
   <path class="fil0" d="M106 30c0,-1 0,-1 0,-1l0 1z"/>
   <path class="fil0" d="M103 71c0,0 0,0 0,0l0 0z"/>
   <path class="fil0" d="M60 31c-1,0 -1,0 -1,1l1 -1z"/>
   <path class="fil0" d="M53 4c0,0 0,-1 0,0l0 0z"/>
   <path class="fil0" d="M24 29c0,0 0,0 0,1l0 -1z"/>
   <path class="fil0" d="M80 51c0,0 0,0 0,0l0 0z"/>
   <path class="fil0" d="M70 61c-1,0 -1,0 -1,0l1 0z"/>
   <path class="fil0" d="M50 51c0,0 0,0 0,0l0 0z"/>
   <path class="fil0" d="M105 66c0,0 0,0 0,0l0 0z"/>
   <path class="fil0" d="M73 33l0 -1c0,1 0,1 0,1z"/>
   <path class="fil0" d="M83 106c-1,0 -1,0 -1,0l1 0z"/>
   <path class="fil0" d="M75 34l-1 -1c0,1 0,1 1,1z"/>
   <path class="fil0" d="M103 24c0,0 0,0 0,0l0 0z"/>
   <path class="fil0" d="M26 69c0,-1 0,-1 0,-1l0 1z"/>
   <path class="fil0" d="M57 32l0 1c0,0 0,0 0,-1z"/>
   <path class="fil0" d="M103 70l0 1c0,0 0,0 0,-1z"/>
   <path class="fil0" d="M25 66l0 0c0,0 0,0 0,0z"/>
   <path class="fil0" d="M53 4l-1 0c1,0 1,0 1,0z"/>
   <path class="fil0" d="M27 71l0 -1c0,1 0,1 0,1z"/>
   <path class="fil0" d="M105 27c0,0 0,0 0,0l0 0z"/>
   <path class="fil0" d="M90 94l0 1c0,0 0,0 0,-1z"/>
   <path class="fil0" d="M91 93c0,0 0,0 0,0l0 0z"/>
   <path class="fil0" d="M88 9c0,-1 0,-1 0,-1l0 1z"/>
   <path class="fil0" d="M50 41c0,0 0,0 0,0l0 0z"/>
   <path class="fil0" d="M102 72c0,0 0,0 0,1l0 -1z"/>
   <path class="fil0" d="M62 125l0 0c0,0 0,0 0,0z"/>
   <path class="fil0" d="M32 17c0,0 0,0 0,0l0 0z"/>
   <path class="fil0" d="M98 17c0,0 0,0 0,0l0 0z"/>
   <path class="fil0" d="M99 18l-1 0c0,0 0,0 1,0z"/>
   <path class="fil0" d="M92 91l0 1c0,0 0,0 0,-1z"/>
   <path class="fil0" d="M60 123c0,-1 0,-1 0,-1l0 1z"/>
   <path class="fil0" d="M101 21c0,0 0,0 0,0l0 0z"/>
   <path class="fil0" d="M81 108c0,0 0,0 0,0l0 0z"/>
   <path class="fil0" d="M29 21c0,0 0,0 0,0l0 0z"/>
   <path class="fil0" d="M54 114l-1 0c0,0 0,0 1,0z"/>
   <path class="fil0" d="M71 122c-1,0 -1,0 -1,0l1 0z"/>
   <path class="fil0" d="M95 87c-1,0 -1,0 -1,0l1 0z"/>
   <path class="fil0" d="M44 101c0,-1 0,-1 -1,-1l1 1z"/>
   <path class="fil0" d="M71 121l0 0c1,0 0,0 0,0z"/>
   <path class="fil0" d="M57 60c0,-1 0,-1 -1,-1l1 1z"/>
   <path class="fil0" d="M79 111l0 0c0,0 0,0 0,0z"/>
   <path class="fil0" d="M72 120c-1,0 -1,0 -1,1l1 -1z"/>
   <path class="fil0" d="M89 96l0 0c0,0 0,0 0,0z"/>
   <path class="fil0" d="M88 97c0,0 0,0 0,1l0 -1z"/>
   <path class="fil0" d="M72 120l0 0c1,0 0,0 0,0z"/>
   <polygon class="fil0" points="21,52 21,52 21,51 "/>
   <path class="fil0" d="M74 59c-1,0 -1,0 -1,1l1 -1z"/>
   <path class="fil0" d="M77 113c0,0 0,0 0,1l0 -1z"/>
   <path class="fil0" d="M58 61l0 -1c0,1 0,1 0,1z"/>
   <path class="fil0" d="M62 125c0,-1 0,-1 0,0l0 0z"/>
   <path class="fil0" d="M76 35c0,0 0,0 0,0l0 0z"/>
   <path class="fil0" d="M54 35c-1,0 -1,0 -1,1l1 -1z"/>
   <path class="fil0" d="M73 118l0 1c1,0 0,0 0,-1z"/>
   <path class="fil0" d="M36 13l0 0c0,0 0,0 0,0z"/>
   <polygon class="fil0" points="25,67 25,66 25,66 "/>
   <path class="fil0" d="M98 18l0 -1c0,1 0,1 0,1z"/>
   <path class="fil0" d="M69 124l-1 0c1,0 1,0 1,0z"/>
   <polygon class="fil0" points="109,41 109,40 108,40 "/>
   <polygon class="fil0" points="58,32 58,32 58,32 "/>
   <polygon class="fil0" points="107,60 107,60 107,60 "/>
   <polygon class="fil0" points="22,54 21,53 "/>
   <polygon class="fil0" points="108,54 108,53 "/>
   <polygon class="fil0" points="108,52 109,51 "/>
   <polygon class="fil0" points="26,67 25,67 "/>
   <polygon class="fil0" points="104,68 105,67 "/>
   <polygon class="fil0" points="109,50 109,49 "/>
   <polygon class="fil0" points="80,51 80,50 "/>
   <polygon class="fil0" points="80,50 80,49 "/>
   <polygon class="fil0" points="81,44 80,43 "/>
   <polygon class="fil0" points="47,106 47,106 "/>
   <polygon class="fil0" points="49,44 50,43 "/>
   <polygon class="fil0" points="27,70 26,69 "/>
   <polygon class="fil0" points="103,70 104,70 "/>
   <polygon class="fil0" points="27,71 27,71 "/>
   <polygon class="fil0" points="21,43 21,42 "/>
   <polygon class="fil0" points="80,42 80,42 "/>
   <polygon class="fil0" points="102,72 103,71 "/>
   <polygon class="fil0" points="50,42 50,42 "/>
   <polygon class="fil0" points="51,4 50,5 "/>
   <polygon class="fil0" points="79,4 78,4 "/>
   <polygon class="fil0" points="52,4 51,4 "/>
   <polygon class="fil0" points="21,40 21,40 "/>
   <polygon class="fil0" points="108,39 108,38 "/>
   <polygon class="fil0" points="76,4 75,3 "/>
   <polygon class="fil0" points="29,74 28,74 "/>
   <polygon class="fil0" points="101,74 102,74 "/>
   <polygon class="fil0" points="21,39 22,38 "/>
   <polygon class="fil0" points="108,38 108,37 "/>
   <polygon class="fil0" points="22,37 22,37 "/>
   <polygon class="fil0" points="108,36 108,35 "/>
   <polygon class="fil0" points="55,3 54,4 "/>
   <polygon class="fil0" points="22,36 22,35 "/>
   <polygon class="fil0" points="74,3 73,3 "/>
   <polygon class="fil0" points="57,3 56,3 "/>
   <polygon class="fil0" points="58,3 58,3 "/>
   <polygon class="fil0" points="100,76 101,76 "/>
   <polygon class="fil0" points="54,35 54,35 "/>
   <polygon class="fil0" points="108,35 107,35 "/>
   <polygon class="fil0" points="22,35 23,35 "/>
   <polygon class="fil0" points="108,34 107,34 "/>
   <polygon class="fil0" points="22,34 23,34 "/>
   <polygon class="fil0" points="71,3 69,2 "/>
   <polygon class="fil0" points="107,33 107,33 "/>
   <polygon class="fil0" points="31,80 31,80 "/>
   <polygon class="fil0" points="72,60 71,61 "/>
   <polygon class="fil0" points="23,61 23,60 "/>
   <polygon class="fil0" points="79,5 79,4 "/>
   <polygon class="fil0" points="107,32 107,32 "/>
   <polygon class="fil0" points="72,32 72,32 "/>
   <polygon class="fil0" points="32,82 32,82 "/>
   <polygon class="fil0" points="23,60 23,60 "/>
   <polygon class="fil0" points="107,60 106,61 "/>
   <polygon class="fil0" points="23,59 23,59 "/>
   <polygon class="fil0" points="23,32 23,32 "/>
   <polygon class="fil0" points="107,59 107,59 "/>
   <polygon class="fil0" points="107,31 106,31 "/>
   <polygon class="fil0" points="107,58 108,58 "/>
   <polygon class="fil0" points="23,31 24,31 "/>
   <polygon class="fil0" points="23,58 22,57 "/>
   <polygon class="fil0" points="67,31 67,31 "/>
   <polygon class="fil0" points="60,123 60,123 "/>
   <polygon class="fil0" points="63,31 63,31 "/>
   <polygon class="fil0" points="106,29 105,28 "/>
   <polygon class="fil0" points="24,29 25,28 "/>
   <polygon class="fil0" points="24,62 23,61 "/>
   <polygon class="fil0" points="108,57 108,57 "/>
   <polygon class="fil0" points="68,61 67,62 "/>
   <polygon class="fil0" points="106,62 107,61 "/>
   <polygon class="fil0" points="108,56 108,56 "/>
   <polygon class="fil0" points="106,62 106,63 "/>
   <polygon class="fil0" points="22,56 22,56 "/>
   <polygon class="fil0" points="108,55 108,54 "/>
   <polygon class="fil0" points="106,63 106,63 "/>
   <polygon class="fil0" points="22,55 22,54 "/>
   <polygon class="fil0" points="36,13 36,13 "/>
   <polygon class="fil0" points="106,64 105,64 "/>
   <polygon class="fil0" points="25,65 24,64 "/>
   <polygon class="fil0" points="105,65 106,64 "/>
   <polygon class="fil0" points="49,5 48,5 "/>
   <polygon class="fil0" points="65,128 65,128 "/>
  </g>
 </g>
</svg>
