<?xml version="1.0" encoding="UTF-8"?>
<!DOCTYPE svg PUBLIC "-//W3C//DTD SVG 1.0//EN" "http://www.w3.org/TR/2001/REC-SVG-20010904/DTD/svg10.dtd">
<!-- Creator: CorelDRAW X7 -->
<?xml-stylesheet href="LIM_RED.css" type="text/css"?>
<svg xmlns="http://www.w3.org/2000/svg" xml:space="preserve" x="0px" y="0px" width="400px" height="400px" version="1.0" style="shape-rendering:geometricPrecision; text-rendering:geometricPrecision; image-rendering:optimizeQuality; fill-rule:evenodd; clip-rule:evenodd"
viewBox="0 0 400 400"
 xmlns:xlink="http://www.w3.org/1999/xlink">
 <g id="Layer_x0020_1">
  <metadata id="CorelCorpID_0Corel-Layer"/>
  <path fill="red" d="M42 126l-1 1 -1 1 -1 1 -1 1 -1 1 -1 1 -1 1 -2 3 -1 1 -1 1 -1 1 -2 3 -1 1 -1 1 -1 2 -1 1 -1 1 -1 2 -1 1 -1 2 -1 1 -1 2 -1 1 0 1 -1 1 -1 2 -1 1 0 1 -1 1 0 1 -1 1 0 1 -1 1 -1 4 -1 1 0 2 -1 1 0 2 -1 1 0 2 -1 2 0 4 -1 2 0 10 1 2 0 4 1 1 0 2 1 1 0 2 1 1 0 1 1 1c1,2 2,4 3,7l1 1 0 1 1 1 0 1 1 1 1 1 0 1 1 1 1 2 1 1 1 2 1 1 1 2 1 1 1 1 1 2 1 1 1 1 1 2 1 1 1 1 1 2 1 1 1 1 2 3 1 1 1 1 1 1 2 3 1 1 1 1 1 1 3 4 1 1 1 1 1 1 1 1 3 4 1 1 1 1 1 1 1 1 1 1 1 1 1 1 6 7 1 1 1 1 1 1 1 1 1 1 1 1 1 1 1 1 1 1 1 1 1 1 1 1 1 1 1 1 1 1 1 1 12 12 1 1 1 1 1 1 1 1 1 1 1 1 1 1 1 1 1 1 1 1 1 1 1 1 1 1 1 1 1 1 1 1 7 6 1 1 1 1 1 1 1 1 1 1 1 1 1 1 4 3 1 1 1 1 1 1 1 1 1 1 3 2 1 1 1 1 1 1 1 1 3 2 1 1 1 1 3 2 1 1 1 1 3 2 1 1 1 1 2 1 1 1 1 1 2 1 1 1 2 1 1 1 1 1 1 0 1 1 1 1 1 0 1 1 2 1 1 1 1 0 1 1 2 1 1 1 1 0 1 1 1 0 1 1 1 0 1 1 4 1 1 1 2 0 1 1 3 0 1 1 17 0 2 -1 3 0 1 -1 2 0 1 -1 2 0 1 -1 2 0 1 -1 1 0 1 -1 1 0 1 -1 1 0 1 -1 1 0 1 -1 1 0 1 -1 1 0 1 -1 2 -1 1 -1 2 -1 1 -1 2 -1 1 -1 2 -1 1 -1 1 -1 2 -1 1 -1 1 -1 3 -2 1 -1 1 -1 1 -1 4 -3 1 -1 1 -1 1 -1 1 -1 1 -1 1 -1 1 -1 1 -1 112 -111 2 -3 0 -1 -2 -2 -54 -53 -1 0 -114 113 -1 1 -1 1 -1 1 -2 1 -1 1 -2 1 -1 1 -1 0 -1 1 -2 0 -1 1 -3 0 -1 1 -6 0 -1 -1 -3 0 -1 -1 -2 0 -1 -1 -1 0 -1 -1 -2 -1 -1 -1 -1 0 -1 -1 -1 -1 -1 0 -1 -1 -1 -1 -2 -1 -1 -1 -1 -1 -2 -1 -1 -1 -1 -1 -1 -1 -3 -2 -1 -1 -1 -1 -1 -1 -1 -1 -5 -4 -1 -1 -1 -1 -1 -1 -1 -1 -1 -1 -1 -1 -1 -1 -1 -1 -1 -1 -20 -20 -1 -1 -1 -1 -1 -1 -1 -1 -1 -1 -1 -1 -1 -1 -1 -1 -1 -1 -3 -4 -1 -1 -1 -1 -1 -1 -1 -1 -2 -3 -1 -1 -1 -1 -1 -1 -2 -3 -1 -1 -1 -1 -1 -2 -1 -1 -1 -2 -1 -1 -1 -2 -1 -1 -2 -4 -1 -1 0 -2 -1 -1 0 -2 -1 -1 0 -7 1 -2 0 -2 1 -1 0 -1 1 -1 0 -1 1 -1 0 -1 1 -1 1 -1 1 -2 1 -1 1 -1 115 -117 -56 -55 -1 0 -116 116z"/>
 </g>
</svg>
