<?xml version="1.0" encoding="UTF-8"?>
<!DOCTYPE svg PUBLIC "-//W3C//DTD SVG 1.0//EN" "http://www.w3.org/TR/2001/REC-SVG-20010904/DTD/svg10.dtd">
<!-- Creator: CorelDRAW X7 -->
<svg xmlns="http://www.w3.org/2000/svg" xml:space="preserve" width="85px" height="40px" version="1.0" style="shape-rendering:geometricPrecision; text-rendering:geometricPrecision; image-rendering:optimizeQuality; fill-rule:evenodd; clip-rule:evenodd"
viewBox="0 0 85 40"
 xmlns:xlink="http://www.w3.org/1999/xlink">
 <defs>
  <style type="text/css">
   <![CDATA[
    .fil6 {fill:#5DB0A7}
    .fil9 {fill:#60B2A9}
    .fil8 {fill:#74BCB4}
    .fil11 {fill:#79BEB7}
    .fil7 {fill:#8CC7C1}
    .fil10 {fill:#91CAC4}
    .fil12 {fill:#A4D3CE}
    .fil4 {fill:#D2EAE7}
    .fil3 {fill:#E8F4F3}
    .fil2 {fill:#F2F9F8}
    .fil5 {fill:#F5FBF9}
    .fil1 {fill:white}
    .fil0 {fill:#A1A3A1}
   ]]>
  </style>
 </defs>
 <g id="Layer_x0020_1">
  <metadata id="CorelCorpID_0Corel-Layer"/>
  <g id="_838574464">
   <polygon class="fil0" points="0,31 0,38 86,38 86,21 0,21 0,30 5,30 5,31 "/>
   <polygon class="fil0" points="0,11 0,19 86,19 86,2 0,2 0,10 5,10 5,11 "/>
   <polygon class="fil1" points="86,21 86,19 0,19 0,21 "/>
   <polygon class="fil2" points="65,31 70,31 70,30 65,30 "/>
   <polygon class="fil3" points="65,11 70,11 70,10 65,10 "/>
   <polygon class="fil2" points="29,31 34,31 34,30 29,30 "/>
   <polygon class="fil4" points="0,10 0,11 5,11 5,10 "/>
   <polygon class="fil3" points="29,11 34,11 34,10 29,10 "/>
   <polygon class="fil3" points="8,11 12,11 12,10 8,10 "/>
   <polygon class="fil3" points="26,11 26,10 22,10 22,11 "/>
   <polygon class="fil3" points="37,10 37,11 41,11 41,10 "/>
   <polygon class="fil3" points="55,11 55,10 51,10 51,11 "/>
   <polygon class="fil5" points="8,31 12,31 12,30 8,30 "/>
   <polygon class="fil2" points="26,31 26,30 22,30 22,31 "/>
   <polygon class="fil5" points="37,30 37,31 41,31 41,30 "/>
   <polygon class="fil5" points="55,31 55,30 51,30 51,31 "/>
   <polygon class="fil3" points="80,11 84,11 84,10 80,10 "/>
   <polygon class="fil5" points="80,31 84,31 84,30 80,30 "/>
   <polygon class="fil3" points="19,11 19,10 15,10 15,11 "/>
   <polygon class="fil3" points="44,11 48,11 48,10 44,10 "/>
   <polygon class="fil3" points="62,11 62,10 58,10 58,11 "/>
   <polygon class="fil3" points="73,10 73,11 77,11 77,10 "/>
   <polygon class="fil5" points="19,31 19,30 15,30 15,31 "/>
   <polygon class="fil5" points="1,30 1,31 5,31 5,30 "/>
   <polygon class="fil5" points="44,31 48,31 48,30 44,30 "/>
   <polygon class="fil2" points="62,31 62,30 58,30 58,31 "/>
   <polygon class="fil5" points="73,30 73,31 77,31 77,30 "/>
   <polygon class="fil6" points="19,10 19,11 20,11 20,10 "/>
   <polygon class="fil7" points="26,10 26,11 27,11 27,10 "/>
   <polygon class="fil8" points="37,11 37,10 36,10 36,11 "/>
   <polygon class="fil7" points="62,10 62,11 63,11 63,10 "/>
   <polygon class="fil8" points="73,11 73,10 72,10 72,11 "/>
   <polygon class="fil9" points="19,30 19,31 20,31 20,30 "/>
   <polygon class="fil10" points="26,30 26,31 27,31 27,30 "/>
   <polygon class="fil11" points="37,31 37,30 36,30 36,31 "/>
   <polygon class="fil10" points="62,30 62,31 63,31 63,30 "/>
   <polygon class="fil11" points="73,31 73,30 72,30 72,31 "/>
   <polygon class="fil12" points="1,31 1,30 0,30 0,31 "/>
   <polygon class="fil6" points="55,10 55,11 56,11 56,10 "/>
   <polygon class="fil9" points="55,30 55,31 56,31 56,30 "/>
  </g>
 </g>
</svg>
