<?xml version="1.0" encoding="UTF-8"?>
<!DOCTYPE svg PUBLIC "-//W3C//DTD SVG 1.0//EN" "http://www.w3.org/TR/2001/REC-SVG-20010904/DTD/svg10.dtd">
<!-- Creator: CorelDRAW X7 -->
<svg xmlns="http://www.w3.org/2000/svg" xml:space="preserve" width="85px" height="40px" version="1.0" style="shape-rendering:geometricPrecision; text-rendering:geometricPrecision; image-rendering:optimizeQuality; fill-rule:evenodd; clip-rule:evenodd"
viewBox="0 0 85 40"
 xmlns:xlink="http://www.w3.org/1999/xlink">
 <defs>
  <style type="text/css">
   <![CDATA[
    .str0 {stroke:white;stroke-width:0.900008}
    .fil1 {fill:#006633}
    .fil2 {fill:#008274}
    .fil0 {fill:#666666}
    .fil3 {fill:white}
   ]]>
  </style>
 </defs>
 <g id="Layer_x0020_1">
  <metadata id="CorelCorpID_0Corel-Layer"/>
  <path class="fil0 str0" d="M14 37l0 -4 0 -26 0 -4 0 -3 -6 0c0,0 0,0 0,0 0,1 0,3 0,3l0 4 0 26 0 4 0 3c0,0 0,0 0,0l6 0 0 -3z"/>
  <polygon class="fil0 str0" points="56,37 56,33 56,7 56,3 56,0 49,0 49,3 49,7 49,33 49,37 49,40 56,40 "/>
  <path class="fil0 str0" d="M35 33l0 -26c0,-1 0,-2 0,-3 0,-1 0,-1 0,-2 0,-1 0,-1 0,-2 -1,0 -6,0 -7,0l0 2c0,1 0,1 0,1l0 0c0,1 0,4 0,4l0 26c0,0 0,3 0,4l0 0c0,0 0,0 0,0 0,0 0,3 0,3 1,0 6,0 7,0l0 -4c0,-1 0,-2 0,-3z"/>
  <path class="fil0 str0" d="M76 33l0 -26 0 -7 -6 0c0,0 0,3 0,3 0,1 0,3 0,4 0,1 0,3 0,5 0,2 0,20 0,21 0,1 0,3 0,4l0 0c0,0 0,0 0,0 0,0 0,0 0,1l0 2 6 0c0,-1 0,-3 0,-4 0,-1 0,-2 0,-3z"/>
  <polygon class="fil1 str0" points="86,36 86,32 0,32 0,36 "/>
  <polygon class="fil1 str0" points="86,8 86,4 0,4 0,8 "/>
  <polygon class="fil2" points="14,32 14,8 8,8 8,32 "/>
  <polygon class="fil2" points="28,8 28,32 35,32 35,8 "/>
  <polygon class="fil2" points="49,8 49,32 56,32 56,8 "/>
  <path class="fil2" d="M70 12c0,2 0,17 0,20l6 0 0 -24 -6 0c0,1 0,3 0,4z"/>
  <path class="fil2" d="M14 3l0 -3 -6 0c0,0 0,0 0,0 0,1 0,3 0,3l0 1 6 0 0 -1z"/>
  <path class="fil2" d="M28 0l0 2c0,1 0,1 0,1l0 0c0,0 0,0 0,1l7 0c0,0 0,0 0,0 0,-1 0,-1 0,-2 0,-1 0,-1 0,-2 -1,0 -6,0 -7,0z"/>
  <polygon class="fil2" points="49,0 49,3 49,4 56,4 56,3 56,0 "/>
  <path class="fil2" d="M70 0c0,0 0,3 0,3 0,0 0,1 0,1l6 0 0 -4 -6 0z"/>
  <path class="fil2" d="M76 36l-6 0c0,0 0,1 0,1l0 0 0 0c0,0 0,0 0,1l0 2 6 0c0,-1 0,-3 0,-4 0,0 0,0 0,0z"/>
  <polygon class="fil2" points="56,40 56,37 56,36 49,36 49,37 49,40 "/>
  <path class="fil2" d="M35 40l0 -4c0,0 0,0 0,0l-7 0c0,1 0,1 0,1l0 0 0 0c0,0 0,3 0,3 1,0 6,0 7,0z"/>
  <path class="fil2" d="M14 40l0 -3 0 -1 -6 0 0 1 0 3c0,0 0,0 0,0l6 0z"/>
  <circle class="fil3" cx="11" cy="2" r="2"/>
  <circle class="fil3" cx="53" cy="2" r="2"/>
  <circle class="fil3" cx="73" cy="2" r="2"/>
  <circle class="fil3" cx="31" cy="2" r="2"/>
  <circle class="fil3" cx="11" cy="38" r="2"/>
  <circle class="fil3" cx="53" cy="38" r="2"/>
  <circle class="fil3" cx="73" cy="38" r="2"/>
  <circle class="fil3" cx="31" cy="38" r="2"/>
 </g>
</svg>
