<?xml version="1.0" encoding="UTF-8"?>
<!DOCTYPE svg PUBLIC "-//W3C//DTD SVG 1.0//EN" "http://www.w3.org/TR/2001/REC-SVG-20010904/DTD/svg10.dtd">
<!-- Creator: CorelDRAW X7 -->
<svg xmlns="http://www.w3.org/2000/svg" xml:space="preserve" width="85px" height="40px" version="1.0" style="shape-rendering:geometricPrecision; text-rendering:geometricPrecision; image-rendering:optimizeQuality; fill-rule:evenodd; clip-rule:evenodd"
viewBox="0 0 85 40"
 xmlns:xlink="http://www.w3.org/1999/xlink">
 <defs>
  <style type="text/css">
   <![CDATA[
    .fil0 {fill:#008274}
   ]]>
  </style>
 </defs>
 <g id="Layer_x0020_1">
  <metadata id="CorelCorpID_0Corel-Layer"/>
  <path class="fil0" d="M45 32c0,-33 5,-27 -20,-27l0 4 14 0 0 7c-5,0 -9,-1 -12,1 1,5 3,4 12,4 0,4 -1,8 1,11 -5,-1 -5,-4 -10,-5 -5,1 -5,6 -15,5 -7,-1 -9,-6 -14,-4 -3,3 5,11 19,10 4,-1 9,-4 11,-3 5,0 8,8 23,0 5,-2 4,1 10,2 11,3 20,-1 22,-8 -9,-6 -5,6 -21,2 -5,-1 -5,-4 -10,-3 -5,1 -3,4 -10,4z"/>
 </g>
</svg>
