<?xml version="1.0" encoding="utf-8"?>
<!-- Generator: Adobe Illustrator 16.0.4, SVG Export Plug-In . SVG Version: 6.00 Build 0)  -->
<!DOCTYPE svg PUBLIC "-//W3C//DTD SVG 1.1//EN" "http://www.w3.org/Graphics/SVG/1.1/DTD/svg11.dtd">
<svg version="1.1" xmlns="http://www.w3.org/2000/svg" xmlns:xlink="http://www.w3.org/1999/xlink" x="0px" y="0px" width="48px"
  height="48px" viewBox="0 0 48 48" enable-background="new 0 0 48 48" xml:space="preserve">
<g id="Label">
</g>
<g id="Icon">
 <g>
  <g>
   <path fill="#33AC71" d="M48,44.328C48,46.356,46.351,48,44.317,48H3.684C1.649,48,0,46.356,0,44.328V3.672
    C0,1.644,1.649,0,3.684,0h40.634C46.351,0,48,1.644,48,3.672V44.328z"/>
   
    <radialGradient id="SVGID_2_" cx="6366.7295" cy="3399.0088" r="74.8951" gradientTransform="matrix(0.3209 0 0 0.32 -2019.0835 -1063.6824)" gradientUnits="userSpaceOnUse">
    <stop  offset="0" style="stop-color:#FFFFFF"/>
    <stop  offset="1" style="stop-color:#FFFFFF;stop-opacity:0"/>
   </radialGradient>
   <path fill="url(#SVGID_2_)" fill-opacity="0.08" d="M48,44.328C48,46.356,46.351,48,44.317,48H3.684C1.649,48,0,46.356,0,44.328
    V3.672C0,1.644,1.649,0,3.684,0h40.634C46.351,0,48,1.644,48,3.672V44.328z"/>
  </g>
  <g>
   <defs>
    <path id="SVGID_233_" d="M0.075,0v22.179C0.03,22.781,0,23.387,0,24s0.03,1.22,0.075,1.822V48H48V0H0.075z"/>
   </defs>
   <clipPath id="SVGID_3_">
    <use xlink:href="#SVGID_233_"  overflow="visible"/>
   </clipPath>
   <g clip-path="url(#SVGID_3_)">
    <linearGradient id="SVGID_4_" gradientUnits="userSpaceOnUse" x1="26.9619" y1="28.2983" x2="39.5486" y2="48.1383">
     <stop  offset="0" style="stop-color:#263238;stop-opacity:0.15"/>
     <stop  offset="1" style="stop-color:#263238;stop-opacity:0.02"/>
    </linearGradient>
    <path fill="url(#SVGID_4_)" d="M33.302,13.113l-1.707,7.668l-9.129,1.867l-9.007,14.124l12.946,20.505
     c1.533,0.309,3.118,0.473,4.742,0.473l0,0l0,0c11.377,0,18.781-8.657,21.186-19.315L33.302,13.113z"/>
   </g>
  </g>
  <g>
   <path fill="#FFFFFF" d="M13.459,26.057h2.946v-7.983c0-4.195,3.4-7.595,7.595-7.595s7.595,3.4,7.595,7.595v7.857h2.947v-7.857
    c0-5.822-4.721-10.542-10.542-10.542s-10.541,4.72-10.541,10.542V26.057z"/>
   <path fill="#FFFFFF" d="M13.459,20.781v15.846h21.083V20.781H13.459z M26.578,33.261h-5.156l1.021-4.038
    c-0.69-0.489-1.143-1.293-1.143-2.204c0-1.491,1.209-2.7,2.7-2.7s2.7,1.209,2.7,2.7c0,0.911-0.452,1.714-1.143,2.203
    L26.578,33.261z"/>
  </g>
 </g>
</g>
</svg>
