<?xml version="1.0" encoding="utf-8"?>
<!-- Generator: Adobe Illustrator 16.0.4, SVG Export Plug-In . SVG Version: 6.00 Build 0)  -->
<!DOCTYPE svg PUBLIC "-//W3C//DTD SVG 1.1//EN" "http://www.w3.org/Graphics/SVG/1.1/DTD/svg11.dtd">
<svg version="1.1" xmlns="http://www.w3.org/2000/svg" xmlns:xlink="http://www.w3.org/1999/xlink" x="0px" y="0px" width="48px"
  height="48px" viewBox="0 0 48 48" enable-background="new 0 0 48 48" xml:space="preserve">
<g id="Label">
</g>
<g id="Icon">
 <g>
  <rect opacity="0" fill="#64FFDA" width="48" height="48"/>
  <radialGradient id="SVGID_2_" cx="24" cy="24" r="24" gradientUnits="userSpaceOnUse">
   <stop  offset="0" style="stop-color:#EEEEEE"/>
   <stop  offset="0.4322" style="stop-color:#E6E6E6"/>
   <stop  offset="1" style="stop-color:#E1E1E1"/>
  </radialGradient>
  <path fill="url(#SVGID_2_)" d="M48,44.8c0,1.768-1.432,3.2-3.202,3.2h-41.6C1.435,48,0,46.567,0,44.8V3.2C0,1.433,1.435,0,3.198,0
   h41.6C46.568,0,48,1.433,48,3.2V44.8z"/>
  <path fill="#00BCD4" d="M20.454,48h24.344C46.568,48,48,46.567,48,44.8V24H20.454V48z"/>
  <path fill="#0091EA" d="M24.001,0H3.198C1.435,0,0,1.433,0,3.2v41.6C0,46.567,1.435,48,3.198,48h20.803V0z"/>
  <g>
   <path fill="#455A64" d="M40.646,12.251c-0.015,0.365-0.074,0.73-0.176,1.096s-0.262,0.697-0.478,0.994
    c-0.216,0.296-0.491,0.536-0.827,0.722c-0.339,0.185-0.746,0.277-1.228,0.277c-0.29,0-0.542-0.071-0.765-0.211
    c-0.219-0.141-0.386-0.338-0.5-0.591c-0.37,0.522-0.895,0.785-1.572,0.785c-0.275,0-0.521-0.061-0.732-0.179
    c-0.213-0.121-0.389-0.289-0.527-0.509c-0.139-0.219-0.234-0.482-0.289-0.791c-0.056-0.309-0.068-0.65-0.034-1.027
    c0.046-0.493,0.142-0.939,0.286-1.337c0.146-0.398,0.328-0.737,0.543-1.017c0.22-0.279,0.469-0.495,0.747-0.647
    c0.284-0.151,0.586-0.227,0.907-0.227c0.246,0,0.465,0.015,0.653,0.048c0.188,0.034,0.358,0.077,0.513,0.134
    c0.15,0.056,0.293,0.12,0.419,0.193c0.13,0.074,0.259,0.153,0.386,0.238l-0.019,0.021h0.03l-0.295,3.304
    c-0.016,0.2-0.01,0.362,0.015,0.485c0.024,0.124,0.062,0.219,0.108,0.289c0.049,0.07,0.107,0.116,0.176,0.139
    c0.064,0.023,0.133,0.034,0.197,0.034c0.219,0,0.413-0.059,0.583-0.176c0.169-0.117,0.314-0.276,0.435-0.477
    c0.117-0.199,0.213-0.435,0.281-0.705c0.07-0.269,0.111-0.559,0.123-0.865c0.031-0.662-0.016-1.257-0.142-1.785
    c-0.126-0.528-0.333-0.976-0.62-1.346c-0.29-0.369-0.663-0.653-1.119-0.852c-0.457-0.199-0.997-0.298-1.627-0.298
    c-0.588,0-1.116,0.106-1.591,0.317c-0.47,0.213-0.873,0.514-1.21,0.904c-0.332,0.392-0.598,0.862-0.786,1.416
    c-0.19,0.552-0.302,1.169-0.333,1.851c-0.031,0.677,0.027,1.285,0.17,1.824c0.145,0.539,0.37,0.998,0.672,1.377
    c0.303,0.379,0.679,0.669,1.135,0.872c0.457,0.202,0.981,0.304,1.57,0.304c0.17,0,0.34-0.009,0.516-0.029
    c0.176-0.019,0.346-0.048,0.512-0.083c0.167-0.037,0.324-0.079,0.475-0.128c0.148-0.048,0.285-0.101,0.408-0.158l0.222,0.882
    c-0.136,0.089-0.29,0.165-0.462,0.229c-0.174,0.064-0.358,0.117-0.547,0.158c-0.191,0.043-0.385,0.074-0.583,0.096
    c-0.2,0.022-0.389,0.033-0.564,0.033c-0.762,0-1.44-0.125-2.036-0.374c-0.595-0.248-1.092-0.604-1.492-1.07
    c-0.401-0.466-0.697-1.032-0.892-1.696c-0.194-0.663-0.278-1.41-0.247-2.236c0.037-0.813,0.18-1.552,0.432-2.218
    c0.254-0.667,0.599-1.237,1.037-1.711c0.438-0.473,0.965-0.839,1.576-1.1c0.613-0.259,1.292-0.39,2.045-0.39
    c0.75,0,1.412,0.122,1.992,0.364c0.577,0.242,1.059,0.589,1.443,1.04c0.383,0.45,0.67,0.998,0.855,1.641
    C40.6,10.729,40.677,11.45,40.646,12.251z M34.807,12.816c-0.043,0.484,0,0.854,0.126,1.103c0.127,0.25,0.33,0.375,0.608,0.375
    c0.083,0,0.169-0.007,0.256-0.024c0.087-0.019,0.173-0.053,0.253-0.102c0.084-0.05,0.164-0.119,0.24-0.205
    c0.078-0.087,0.152-0.198,0.22-0.332c0-0.02,0-0.037,0-0.052s0.003-0.033,0.006-0.052l0.257-2.848
    c-0.084-0.026-0.168-0.047-0.26-0.063c-0.09-0.015-0.186-0.023-0.283-0.023c-0.223,0-0.414,0.048-0.574,0.145
    c-0.16,0.096-0.299,0.239-0.414,0.428c-0.11,0.188-0.203,0.421-0.277,0.695C34.894,12.135,34.841,12.454,34.807,12.816z"/>
  </g>
  <linearGradient id="SVGID_3_" gradientUnits="userSpaceOnUse" x1="-1.998" y1="21.6255" x2="35.0419" y2="42.1055">
   <stop  offset="0" style="stop-color:#0277BD"/>
   <stop  offset="0.1633" style="stop-color:#0B5F92;stop-opacity:0.8367"/>
   <stop  offset="0.3453" style="stop-color:#144869;stop-opacity:0.6547"/>
   <stop  offset="0.524" style="stop-color:#1A3649;stop-opacity:0.476"/>
   <stop  offset="0.6959" style="stop-color:#1F2932;stop-opacity:0.3041"/>
   <stop  offset="0.8579" style="stop-color:#222225;stop-opacity:0.1421"/>
   <stop  offset="1" style="stop-color:#231F20;stop-opacity:0"/>
  </linearGradient>
  <polygon opacity="0.5" fill="url(#SVGID_3_)" points="24.001,24 48,48 24.001,48   "/>
  <g>
   <g>
    <rect x="3.937" y="3.985" fill="#0277BD" width="4.145" height="4.147"/>
    <g>
     <rect x="3.937" y="7.972" fill="#03A9F4" width="4.145" height="0.319"/>
    </g>
   </g>
   <g>
    <rect x="9.927" y="3.985" fill="#0277BD" width="4.148" height="4.147"/>
    <g>
     <rect x="9.927" y="7.972" fill="#03A9F4" width="4.148" height="0.319"/>
    </g>
   </g>
   <g>
    <rect x="15.917" y="3.985" fill="#0277BD" width="4.148" height="4.147"/>
    <g>
     <rect x="15.917" y="7.972" fill="#03A9F4" width="4.148" height="0.319"/>
    </g>
   </g>
  </g>
  <g>
   <g>
    <rect x="3.937" y="10.284" fill="#0277BD" width="4.145" height="4.147"/>
    <g>
     <rect x="3.937" y="14.271" fill="#03A9F4" width="4.145" height="0.321"/>
    </g>
   </g>
   <g>
    <rect x="9.927" y="10.284" fill="#0277BD" width="4.148" height="4.147"/>
    <g>
     <rect x="9.927" y="14.271" fill="#03A9F4" width="4.148" height="0.321"/>
    </g>
   </g>
   <g>
    <rect x="15.917" y="10.284" fill="#0277BD" width="4.148" height="4.147"/>
    <g>
     <rect x="15.917" y="14.271" fill="#03A9F4" width="4.148" height="0.321"/>
    </g>
   </g>
  </g>
  <g>
   <g>
    <rect x="3.937" y="16.606" fill="#0277BD" width="4.145" height="4.147"/>
    <g>
     <rect x="3.937" y="20.593" fill="#03A9F4" width="4.145" height="0.321"/>
    </g>
   </g>
   <g>
    <rect x="9.927" y="16.606" fill="#0277BD" width="4.148" height="4.147"/>
    <g>
     <rect x="9.927" y="20.593" fill="#03A9F4" width="4.148" height="0.321"/>
    </g>
   </g>
   <g>
    <rect x="15.917" y="16.606" fill="#0277BD" width="4.148" height="4.147"/>
    <g>
     <rect x="15.917" y="20.593" fill="#03A9F4" width="4.148" height="0.321"/>
    </g>
   </g>
  </g>
  <g>
   <g>
    <rect x="3.937" y="23.433" fill="#0277BD" width="4.145" height="4.147"/>
    <g>
     <rect x="3.937" y="27.419" fill="#03A9F4" width="4.145" height="0.321"/>
    </g>
   </g>
   <g>
    <rect x="9.927" y="23.433" fill="#0277BD" width="4.148" height="4.147"/>
    <g>
     <rect x="9.927" y="27.419" fill="#03A9F4" width="4.148" height="0.321"/>
    </g>
   </g>
   <g>
    <rect x="15.917" y="23.433" fill="#0277BD" width="4.148" height="4.147"/>
    <g>
     <rect x="15.917" y="27.419" fill="#03A9F4" width="4.148" height="0.321"/>
    </g>
   </g>
  </g>
  <g>
   <g>
    <rect x="3.937" y="30.26" fill="#0277BD" width="4.145" height="4.146"/>
    <g>
     <rect x="3.937" y="34.247" fill="#03A9F4" width="4.145" height="0.319"/>
    </g>
   </g>
   <g>
    <rect x="9.927" y="30.26" fill="#0277BD" width="4.148" height="4.146"/>
    <g>
     <rect x="9.927" y="34.247" fill="#03A9F4" width="4.148" height="0.319"/>
    </g>
   </g>
   <g>
    <rect x="15.917" y="30.26" fill="#0277BD" width="4.148" height="4.146"/>
    <g>
     <rect x="15.917" y="34.247" fill="#03A9F4" width="4.148" height="0.319"/>
    </g>
   </g>
  </g>
  <g>
   <g>
    <rect x="27.776" y="28.355" fill="#0277BD" width="4.146" height="4.147"/>
    <g>
     <rect x="27.776" y="32.343" fill="#4FC3F7" width="4.146" height="0.32"/>
    </g>
   </g>
   <g>
    <rect x="33.767" y="28.355" fill="#0277BD" width="4.146" height="4.147"/>
    <g>
     <rect x="33.767" y="32.343" fill="#4FC3F7" width="4.146" height="0.32"/>
    </g>
   </g>
   <g>
    <rect x="39.758" y="28.355" fill="#0277BD" width="4.146" height="4.147"/>
    <g>
     <rect x="39.758" y="32.343" fill="#4FC3F7" width="4.146" height="0.32"/>
    </g>
   </g>
  </g>
  <g>
   <g>
    <rect x="27.776" y="34.566" fill="#0277BD" width="4.146" height="4.147"/>
    <g>
     <rect x="27.776" y="38.553" fill="#4FC3F7" width="4.146" height="0.321"/>
    </g>
   </g>
   <g>
    <rect x="33.767" y="34.566" fill="#0277BD" width="4.146" height="4.147"/>
    <g>
     <rect x="33.767" y="38.553" fill="#4FC3F7" width="4.146" height="0.321"/>
    </g>
   </g>
   <g>
    <rect x="39.758" y="34.566" fill="#0277BD" width="4.146" height="4.147"/>
    <g>
     <rect x="39.758" y="38.553" fill="#4FC3F7" width="4.146" height="0.321"/>
    </g>
   </g>
  </g>
  <g>
   <rect x="24.001" y="23.84" fill="#80D8FF" width="23.999" height="0.32"/>
  </g>
  <path fill="#29B6F6" d="M24.001,0.16V0H3.198C2.853,0,2.517,0.057,2.206,0.16H24.001z"/>
  <linearGradient id="SVGID_4_" gradientUnits="userSpaceOnUse" x1="31.6436" y1="-6.9829" x2="41.8839" y2="21.6582">
   <stop  offset="0" style="stop-color:#0277BD"/>
   <stop  offset="0.1633" style="stop-color:#0B5F92;stop-opacity:0.8367"/>
   <stop  offset="0.3453" style="stop-color:#144869;stop-opacity:0.6547"/>
   <stop  offset="0.524" style="stop-color:#1A3649;stop-opacity:0.476"/>
   <stop  offset="0.6959" style="stop-color:#1F2932;stop-opacity:0.3041"/>
   <stop  offset="0.8579" style="stop-color:#222225;stop-opacity:0.1421"/>
   <stop  offset="1" style="stop-color:#231F20;stop-opacity:0"/>
  </linearGradient>
  <polygon opacity="0.5" fill="url(#SVGID_4_)" points="48,16.865 39.119,7.972 36.614,7.507 33.333,8.292 32.173,10.707 
   31.923,12.358 32.173,16.392 39.758,24 48,24   "/>
 </g>
</g>
</svg>
