<?xml version="1.0" encoding="utf-8"?>
<!-- Generator: Adobe Illustrator 16.0.4, SVG Export Plug-In . SVG Version: 6.00 Build 0)  -->
<!DOCTYPE svg PUBLIC "-//W3C//DTD SVG 1.1//EN" "http://www.w3.org/Graphics/SVG/1.1/DTD/svg11.dtd">
<svg version="1.1" xmlns="http://www.w3.org/2000/svg" xmlns:xlink="http://www.w3.org/1999/xlink" x="0px" y="0px" width="48px"
  height="48px" viewBox="0 0 48 48" enable-background="new 0 0 48 48" xml:space="preserve">
<g id="Label">
</g>
<g id="Icon">
 <g>
  <path fill="#A0C1F9" d="M38.708,25.384c2.208,0,4.001-1.795,4.001-4.008s-1.793-4.008-4.001-4.008
   c-2.206,0-3.999,1.795-3.999,4.008S36.502,25.384,38.708,25.384z M9.375,25.384c2.208,0,4-1.795,4-4.008s-1.792-4.008-4-4.008
   c-2.207,0-4,1.795-4,4.008S7.168,25.384,9.375,25.384z M9.375,28.057c-4.421,0-9.333,2.243-9.333,5.196v3.489h18.667v-3.489
   C18.709,30.299,13.797,28.057,9.375,28.057z M38.709,28.057c-4.422,0-9.334,2.243-9.334,5.196v3.489h18.667v-3.489
   C48.042,30.299,43.13,28.057,38.709,28.057z"/>
  <g>
   <linearGradient id="SVGID_2_" gradientUnits="userSpaceOnUse" x1="36.7041" y1="36.0708" x2="43.0308" y2="42.3975">
    <stop  offset="0" style="stop-color:#263238;stop-opacity:0.16"/>
    <stop  offset="1" style="stop-color:#263238;stop-opacity:0"/>
   </linearGradient>
   <polygon fill="url(#SVGID_2_)" points="44.24,36.742 35.6,28.71 30.509,36.742    "/>
  </g>
  <g>
   <path fill="#4184F3" d="M24.043,21.375c3.68,0,6.666-2.995,6.666-6.681c0-3.688-2.986-6.681-6.666-6.681
    c-3.681,0-6.668,2.993-6.668,6.681C17.375,18.381,20.362,21.375,24.043,21.375z M24.043,25.384
    c-6.948,0-14.667,3.524-14.667,8.165v3.192h29.333v-3.192C38.709,28.908,30.989,25.384,24.043,25.384z"/>
   <path fill="#FFFFFF" fill-opacity="0.4" d="M24.043,8.349c3.624,0,6.568,2.904,6.657,6.513c0.001-0.056,0.009-0.11,0.009-0.167
    c0-3.688-2.986-6.681-6.666-6.681c-3.681,0-6.668,2.993-6.668,6.681c0,0.057,0.008,0.111,0.01,0.167
    C17.474,11.252,20.418,8.349,24.043,8.349z M24.043,25.384c-6.948,0-14.667,3.524-14.667,8.165v0.335
    c0-4.642,7.719-8.166,14.667-8.166c6.946,0,14.666,3.524,14.666,8.166v-0.335C38.709,28.908,30.989,25.384,24.043,25.384z"/>
   <g>
    <g opacity="0.16">
     <path fill="#263238" d="M24.043,21.71c3.68,0,6.666-2.995,6.666-6.681c0-0.057-0.008-0.111-0.009-0.167
      c-0.089,3.608-3.033,6.514-6.657,6.514c-3.625,0-6.569-2.905-6.658-6.514c-0.002,0.056-0.01,0.11-0.01,0.167
      C17.375,18.715,20.362,21.71,24.043,21.71z M9.376,36.742v0.334h29.333v-0.334H9.376z"/>
    </g>
   </g>
  </g>
  <rect x="0.043" fill="none" width="47.999" height="48"/>
 </g>
</g>
</svg>
