<?xml version="1.0" encoding="utf-8"?>
<!-- Generator: Adobe Illustrator 16.0.4, SVG Export Plug-In . SVG Version: 6.00 Build 0)  -->
<!DOCTYPE svg PUBLIC "-//W3C//DTD SVG 1.1//EN" "http://www.w3.org/Graphics/SVG/1.1/DTD/svg11.dtd">
<svg version="1.1" xmlns="http://www.w3.org/2000/svg" xmlns:xlink="http://www.w3.org/1999/xlink" x="0px" y="0px" width="48px"
  height="48px" viewBox="0 0 48 48" enable-background="new 0 0 48 48" xml:space="preserve">
<g id="Label">
</g>
<g id="Icon">
 <g>
  <path fill="#4184F3" d="M24,21.818c6.023,0,10.91-4.89,10.91-10.909C34.91,4.888,30.023,0,24,0
   c-6.021,0-10.908,4.888-10.908,10.909C13.092,16.929,17.979,21.818,24,21.818z M24,28.909c-11.369,0-24,5.755-24,13.333V48h48
   v-5.757C48,34.664,35.369,28.909,24,28.909z"/>
  <path fill="#FFFFFF" fill-opacity="0.4" d="M24,0.545c5.932,0,10.75,4.742,10.896,10.637c0.002-0.091,0.014-0.181,0.014-0.273
   C34.91,4.887,30.025,0,24,0c-6.021,0-10.908,4.887-10.908,10.909c0,0.092,0.012,0.182,0.014,0.273
   C13.252,5.288,18.07,0.545,24,0.545z M24,28.909c-11.369,0-24,5.755-24,13.333v0.545c0-7.579,12.631-13.333,24-13.333
   s24,5.755,24,13.333v-0.545C48,34.664,35.369,28.909,24,28.909z"/>
  <g>
   <g opacity="0.16">
    <path fill="#263238" d="M24,21.833c6.025,0,10.91-4.89,10.91-10.909c0-0.091-0.012-0.181-0.014-0.273
     C34.75,16.543,29.932,21.287,24,21.287c-5.93,0-10.748-4.744-10.895-10.636c-0.002,0.092-0.014,0.182-0.014,0.273
     C13.092,16.943,17.979,21.833,24,21.833z M0,47.455V48h48v-0.545H0z"/>
   </g>
  </g>
  <rect fill="none" width="48" height="48"/>
 </g>
</g>
</svg>
